<?xml version="1.0" encoding="UTF-8"?>
<svg version="1.1" xmlns="http://www.w3.org/2000/svg" width="578" height="537">
<path d="M0 0 C190.74 0 381.48 0 578 0 C578 177.21 578 354.42 578 537 C387.26 537 196.52 537 0 537 C0 359.79 0 182.58 0 0 Z " fill="#FDFDFD" transform="translate(0,0)"/>
<path d="M0 0 C1.78129027 0.00188202 3.56258108 0.00329736 5.34387207 0.00428772 C9.86757023 0.00797341 14.39123237 0.01766974 18.91491699 0.0289917 C24.43078873 0.04139547 29.94667303 0.04567497 35.46255493 0.05144501 C43.6938111 0.06090097 51.92498947 0.08015121 60.15625 0.09765625 C60.15625 24.51765625 60.15625 48.93765625 60.15625 74.09765625 C87.09566954 74.03466978 114.03496447 73.95939436 140.9742794 73.86194134 C153.48414642 73.81707661 165.99398556 73.77764064 178.50390625 73.7512207 C189.41424717 73.72816492 200.32449917 73.69468284 211.23476946 73.64895469 C217.00557985 73.62512436 222.77630273 73.60632904 228.5471611 73.60004234 C233.99234634 73.5939451 239.43730799 73.57377996 244.88241005 73.54338074 C246.86795428 73.53467423 248.85352783 73.53086236 250.83909035 73.53264809 C267.97414933 73.54318153 284.37627724 72.40981406 300.15625 65.09765625 C301.05214844 64.6903125 301.94804687 64.28296875 302.87109375 63.86328125 C327.59168709 51.52113479 339.71820142 29.95750893 348.83203125 4.9140625 C349.26902344 3.98464844 349.70601563 3.05523437 350.15625 2.09765625 C351.64125 1.60265625 351.64125 1.60265625 353.15625 1.09765625 C359.23957643 11.50065564 357.47624513 27.46444735 357.15625 39.09765625 C357.12660156 40.38800781 357.09695313 41.67835938 357.06640625 43.0078125 C356.62953309 52.97065158 354.68919869 62.48064577 352.15625 72.09765625 C351.94460205 72.90348145 351.7329541 73.70930664 351.51489258 74.53955078 C349.8375173 80.53125354 347.53898838 85.87530225 344.59375 91.34765625 C343.93729492 92.57645508 343.93729492 92.57645508 343.26757812 93.83007812 C334.39542414 110.08934745 322.96102469 123.86055454 308.15625 135.09765625 C307.35574219 135.71382812 306.55523437 136.33 305.73046875 136.96484375 C291.32934455 147.57123637 275.62041967 153.39398891 257.7936554 154.33346558 C256.54295456 154.40875075 255.29225373 154.48403593 254.00365287 154.56160247 C240.37028138 155.31252311 226.7392882 155.37084241 213.0892781 155.32978749 C209.37946103 155.32094515 205.66964829 155.32408741 201.95982361 155.32559204 C195.57003764 155.32662811 189.1802933 155.32048772 182.79051781 155.30911636 C173.55259621 155.29268732 164.31469423 155.28763583 155.07675961 155.28514038 C140.07972619 155.28079016 125.08271484 155.26755465 110.08569336 155.24853516 C95.53914497 155.23010644 80.99260265 155.21600741 66.44604492 155.20751953 C65.53649593 155.20698354 64.62694693 155.20644754 63.68983585 155.2058953 C56.57392019 155.20173514 49.45800441 155.19782176 42.34208858 155.19398618 C7.61345545 155.1752041 -27.11512228 155.13494762 -61.84375 155.09765625 C-61.84375 104.27765625 -61.84375 53.45765625 -61.84375 1.09765625 C-15.83206855 -0.05263579 -15.83206855 -0.05263579 0 0 Z " fill="#1753A6" transform="translate(98.84375,380.90234375)"/>
<path d="M0 0 C2.77110262 0.00505485 5.54217518 0.00099971 8.3132782 -0.00265503 C14.24395807 -0.00577846 20.17423732 0.01280585 26.10481644 0.046772 C34.67902459 0.09584662 43.25304199 0.1111923 51.82737534 0.11869995 C65.74358747 0.13178321 79.65958679 0.17157999 93.57568359 0.22851562 C107.08185778 0.28371614 120.58797384 0.32612454 134.09423828 0.3515625 C134.92885502 0.35313884 135.76347175 0.35471518 136.6233799 0.35633929 C140.81103214 0.36417036 144.99868479 0.37175241 149.18633771 0.37921071 C183.84492332 0.44125973 218.50323814 0.5484738 253.16162109 0.68115234 C253.16162109 8.27115234 253.16162109 15.86115234 253.16162109 23.68115234 C250.45072266 23.71853516 247.73982422 23.75591797 244.94677734 23.79443359 C242.29557634 23.84076164 239.64451026 23.89195408 236.9934082 23.94360352 C235.16341481 23.97667666 233.33332373 24.00476233 231.50317383 24.02758789 C228.85895496 24.06146041 226.21561731 24.11378876 223.57177734 24.16943359 C222.36183861 24.17901848 222.36183861 24.17901848 221.12745667 24.188797 C215.33905328 24.33566565 210.56010549 25.65375651 205.16162109 27.68115234 C204.20513672 27.96216797 203.24865234 28.24318359 202.26318359 28.53271484 C193.22616774 31.35500055 186.5249393 36.82642601 180.29443359 43.86474609 C173.04038362 51.95989796 168.31013097 54.03895707 157.16162109 54.68115234 C146.55577743 56.46711047 139.39478578 61.51618531 132.54757118 69.68310356 C131.06894966 71.63161928 131.06894966 71.63161928 130.34016991 73.9599781 C129.28124454 76.78285582 128.30311799 78.53920493 126.16162109 80.68115234 C121.08595547 82.11511289 116.00644416 81.96496102 110.77734375 81.93066406 C109.18514249 81.95281154 107.59299225 81.978929 106.00091553 82.00871277 C101.67776313 82.0787069 97.35590271 82.0941326 93.03225374 82.10069036 C88.4957864 82.11770185 83.96015379 82.18755911 79.42416382 82.25247192 C70.81852556 82.36811206 62.21312627 82.44069835 53.6069082 82.49584591 C38.23441029 82.59580778 22.86265155 82.77038212 7.49100149 82.95782101 C2.10530499 83.02182796 -3.28015243 83.06790592 -8.66614032 83.0983398 C-12.03865345 83.11960859 -15.41099805 83.15227887 -18.78339386 83.1872654 C-20.33156669 83.20077657 -21.87979178 83.20944404 -23.42802048 83.21253395 C-36.28853115 83.24157392 -49.53023724 84.02974355 -61.02587891 90.36865234 C-62.0182959 90.8930188 -62.0182959 90.8930188 -63.03076172 91.42797852 C-84.95240512 103.23295814 -100.49550735 118.50340455 -107.83837891 142.68115234 C-109.72376676 149.62929484 -111.32338357 156.64404984 -112.83837891 163.68115234 C-113.49837891 163.68115234 -114.15837891 163.68115234 -114.83837891 163.68115234 C-117.96445555 150.51646989 -119.50844204 138.00476985 -119.41479492 124.47216797 C-119.40087939 121.68124861 -119.43525476 118.89366981 -119.47314453 116.10302734 C-119.60140079 85.50131931 -107.4155034 54.65148184 -85.83837891 32.68115234 C-83.29146823 30.18151612 -80.62219217 27.91349706 -77.83837891 25.68115234 C-77.07291748 25.06385254 -77.07291748 25.06385254 -76.29199219 24.43408203 C-67.4682071 17.40243026 -58.50646581 11.99040711 -48.10355449 7.63122296 C-46.69789412 7.04165426 -45.29561152 6.44387402 -43.89894605 5.83330226 C-29.50330032 -0.3388869 -15.44850066 -0.1332829 0 0 Z " fill="#1753A6" transform="translate(232.83837890625,-0.68115234375)"/>
<path d="M0 0 C5.31677036 0.07799663 9.5812434 2.00819029 14.36328125 4.1796875 C15.73480347 4.78925293 15.73480347 4.78925293 17.1340332 5.41113281 C39.1449623 15.33550861 58.25848821 27.3637618 75.55078125 44.3046875 C76.22238281 44.93761719 76.89398438 45.57054687 77.5859375 46.22265625 C82.73573193 51.16129738 87.1665024 56.68733023 91.55078125 62.3046875 C92.72640625 63.79548828 92.72640625 63.79548828 93.92578125 65.31640625 C120.58873177 100.20361567 132.14762922 146.95603359 126.73828125 190.3671875 C126.36984098 192.68420974 125.9741494 194.99706975 125.55078125 197.3046875 C125.32132813 198.57699219 125.091875 199.84929687 124.85546875 201.16015625 C123.42877799 208.64652827 121.75625301 216.00966552 119.55078125 223.3046875 C119.21433594 224.44292969 118.87789062 225.58117187 118.53125 226.75390625 C115.49261704 236.47956424 111.42554405 245.36651396 106.55078125 254.3046875 C106.0405542 255.24828125 106.0405542 255.24828125 105.52001953 256.2109375 C94.11353243 277.01897098 77.27409193 294.71866523 59.55078125 310.3046875 C58.143125 311.54412109 58.143125 311.54412109 56.70703125 312.80859375 C51.13094093 317.54346355 45.39429352 321.36865929 38.984375 324.89453125 C36.47437735 326.2095608 36.47437735 326.2095608 34.55078125 328.3046875 C32.2797133 329.19262384 29.9837933 330.01775616 27.67578125 330.8046875 C22.9747703 332.35632116 22.9747703 332.35632116 18.49609375 334.421875 C15.78168378 335.65371567 13.2629601 335.73650192 10.30078125 335.9296875 C8.68429687 336.04183594 8.68429687 336.04183594 7.03515625 336.15625 C6.2153125 336.20523437 5.39546875 336.25421875 4.55078125 336.3046875 C7.72804617 332.49196959 10.95078025 328.84952279 14.48828125 325.3671875 C36.40110636 303.6197422 50.50603525 277.51464186 56.55078125 247.3046875 C56.73914551 246.3768042 56.92750977 245.4489209 57.12158203 244.49291992 C58.59096288 236.6017276 58.93561803 228.88416325 58.92578125 220.8671875 C58.92489502 219.55838623 58.92400879 218.24958496 58.9230957 216.90112305 C58.78758944 205.66786051 57.29226448 195.17401577 54.55078125 184.3046875 C54.30070312 183.24894531 54.050625 182.19320312 53.79296875 181.10546875 C53.12464284 178.47441559 52.35419823 175.89735678 51.55078125 173.3046875 C51.27363281 172.27859375 50.99648438 171.2525 50.7109375 170.1953125 C45.66921977 153.07249757 36.96288454 135.24350366 24.55078125 122.3046875 C23.00816845 120.55552146 21.46650885 118.80551432 19.92578125 117.0546875 C16.66489698 113.45567991 13.29824071 110.01204154 9.765625 106.6796875 C8.55078125 105.3046875 8.55078125 105.3046875 8.55078125 103.3046875 C7.96554687 103.03785156 7.3803125 102.77101563 6.77734375 102.49609375 C4.51457752 101.28531533 2.83194554 99.9510176 0.92578125 98.2421875 C-0.86734455 96.64090267 -2.29578191 95.38140592 -4.44921875 94.3046875 C-4.47234053 82.19626806 -4.49013299 70.08785383 -4.50103092 57.97941685 C-4.50626011 52.35760788 -4.51335841 46.73581397 -4.5246582 41.11401367 C-4.53548581 35.69350473 -4.54149531 30.2730103 -4.54409599 24.85249138 C-4.54595047 22.77953805 -4.54957152 20.70658556 -4.55494881 18.63363838 C-4.56215755 15.74084857 -4.56320976 12.84811954 -4.56274414 9.95532227 C-4.56633942 9.08929886 -4.56993469 8.22327545 -4.57363892 7.33100891 C-4.56148956 0.40294019 -4.56148956 0.40294019 0 0 Z " fill="#F6A333" transform="translate(412.44921875,192.6953125)"/>
<path d="M0 0 C-3.05457112 3.74184962 -6.02297889 7.11195006 -9.75 10.1875 C-24.85455187 23.26094735 -35.32026381 42.01705948 -41 61 C-41.53734771 62.5848043 -42.07854863 64.16831162 -42.625 65.75 C-43.08563228 67.16592083 -43.54394397 68.58259858 -44 70 C-44.268125 70.79792969 -44.53625 71.59585938 -44.8125 72.41796875 C-45.2146875 73.66513672 -45.2146875 73.66513672 -45.625 74.9375 C-45.86476563 75.66839844 -46.10453125 76.39929688 -46.3515625 77.15234375 C-48.5262313 86.70254589 -48.21792722 96.63156867 -48.24023438 106.37329102 C-48.24986061 108.90089863 -48.28092889 111.42766304 -48.3125 113.95507812 C-48.47246584 138.57467512 -42.5164999 159.89329865 -32 182 C-31.68885254 182.66104736 -31.37770508 183.32209473 -31.05712891 184.00317383 C-24.27970885 198.02536275 -14.78547904 209.90007551 -4 221 C-2.24779107 222.98583678 -0.52840031 224.98891891 1.15922546 227.02970886 C2.9554 229.07559249 2.9554 229.07559249 5.25886536 230.65010071 C9.39294824 233.88065588 12.0775335 236.81086266 12.80526733 242.08700562 C13.19191584 247.21783592 13.06634833 252.34112185 12.94921875 257.48046875 C12.9374895 259.38135404 12.92947834 261.28226556 12.92500305 263.18318176 C12.90674547 267.15377626 12.85966802 271.12252922 12.78881836 275.0925293 C12.6981937 280.17332069 12.65516264 285.25299826 12.63057232 290.33449841 C12.60577848 295.19580674 12.56073963 300.05685204 12.51171875 304.91796875 C12.50341223 305.84061209 12.49510571 306.76325542 12.48654747 307.71385765 C12.45858697 310.33191807 12.41665884 312.94935471 12.36987305 315.56713867 C12.35944977 316.71981735 12.35944977 316.71981735 12.34881592 317.89578247 C12.25257266 322.28689249 11.6142902 325.91347887 10 330 C4.82574009 331.85162382 1.18081695 329.84594073 -3.5625 327.75 C-4.39096436 327.39083496 -5.21942871 327.03166992 -6.07299805 326.66162109 C-51.11260782 306.66564215 -88.2424315 271.75698432 -106.10498047 225.37304688 C-112.69907331 207.88952739 -117.10612475 190.43787563 -117.203125 171.62890625 C-117.20882507 170.74831039 -117.21452515 169.86771454 -117.22039795 168.96043396 C-117.22979704 167.10229676 -117.23636153 165.24414327 -117.24023438 163.38598633 C-117.24986541 160.60141256 -117.28090679 157.81760194 -117.3125 155.03320312 C-117.37965705 143.67936502 -116.43040341 133.0890009 -114 122 C-113.72422119 120.684552 -113.72422119 120.684552 -113.44287109 119.3425293 C-111.67684524 111.26337364 -109.35003153 103.56244742 -106 96 C-105.24396484 94.18242187 -105.24396484 94.18242187 -104.47265625 92.328125 C-87.56916897 51.98735907 -55.59529216 19.85961737 -15.05078125 3.15625 C-9.80791966 1.16919874 -5.65915336 -0.26948349 0 0 Z " fill="#1752A6" transform="translate(147,11)"/>
<path d="M0 0 C2.19472639 -0.00967266 4.3885022 -0.0407042 6.58300781 -0.07226562 C20.57373317 -0.17939781 29.80998448 3.73022355 40.09082031 13.36523438 C46.47159447 20.00213036 50.73444788 27.51866293 53.40332031 36.30273438 C54.54342416 39.8878003 54.54342416 39.8878003 57.13378906 42.41601562 C59.09412043 43.15117934 59.09412043 43.15117934 61.18457031 43.64648438 C72.66031112 46.63332102 80.55493521 54.29920033 86.46582031 64.24023438 C90.6264524 72.59079877 90.77714898 81.96361099 88.02832031 90.80273438 C85.40835448 97.22766825 81.15712725 102.20480462 76.46582031 107.24023438 C75.9464389 107.89852234 75.4270575 108.5568103 74.89193726 109.23504639 C72.15011632 112.43725678 69.92887933 114.85388219 65.77331543 115.95124817 C62.5571047 116.18395114 59.43098846 116.16505701 56.20800781 116.05664062 C54.98813171 116.04810059 53.76825562 116.03956055 52.51141357 116.03076172 C49.15579555 115.99948271 45.80446195 115.9324292 42.4499588 115.84965897 C38.88317654 115.77030439 35.31595418 115.73707573 31.74853516 115.69897461 C25.59580294 115.62755164 19.44403657 115.52806391 13.29199219 115.41210938 C3.9880083 115.23856742 -5.31604332 115.13560618 -14.62117386 115.0466938 C-50.61248868 114.69987612 -50.61248868 114.69987612 -68.24189568 114.34128094 C-72.98460311 114.25067715 -77.72131035 114.24256212 -82.46484375 114.26318359 C-84.87598329 114.24467104 -87.28711684 114.22535404 -89.69824219 114.20507812 C-90.76174896 114.22663467 -91.82525574 114.24819122 -92.92098999 114.270401 C-100.10901665 114.15145218 -103.98919382 112.14965093 -109.41488647 107.4690094 C-117.25724514 99.22151773 -119.12741018 91.17193218 -118.87011719 80.07617188 C-118.21915367 72.64307678 -115.16985318 67.48325514 -109.84667969 62.36523438 C-104.82040614 58.31946495 -99.04056531 56.23319313 -92.88574219 54.49023438 C-89.63016405 52.7596945 -89.27502431 50.99281008 -88.09667969 47.55273438 C-84.93138498 39.38549247 -80.99980122 34.00611573 -72.97949219 30.13085938 C-68.11406431 28.87312972 -63.41088999 29.10084037 -58.40917969 29.11523438 C-51.01841477 29.20872852 -51.01841477 29.20872852 -44.61230469 26.02539062 C-42.66338318 23.18386307 -41.09680899 20.30792242 -39.53417969 17.24023438 C-29.33064022 4.14109587 -15.88487127 0.04234084 0 0 Z " fill="#F6A332" transform="translate(462.5341796875,38.759765625)"/>
<path d="M0 0 C18.15 0 36.3 0 55 0 C56 1 56 1 56.12304783 3.7936182 C56.12166514 5.68375472 56.12166514 5.68375472 56.12025452 7.61207581 C56.12110894 8.31121768 56.12196337 9.01035956 56.12284368 9.73068756 C56.12450051 12.09074751 56.11897384 14.45073753 56.11352539 16.81079102 C56.11324354 18.49564614 56.11340122 20.18050139 56.1139679 21.86535645 C56.11425594 26.45400453 56.10835811 31.0426267 56.10139394 35.63126874 C56.09516153 40.42124632 56.09455669 45.21122443 56.09336853 50.00120544 C56.09025488 59.07829032 56.08204104 68.15536321 56.07201904 77.2324428 C56.06085895 87.56358581 56.05534772 97.89472939 56.05032361 108.22587693 C56.03985845 129.48392613 56.02151255 150.74195891 56 172 C37.52 172 19.04 172 0 172 C0 115.24 0 58.48 0 0 Z " fill="#1854A7" transform="translate(331,261)"/>
<path d="M0 0 C0 42.24 0 84.48 0 128 C-18.15 128 -36.3 128 -55 128 C-55 86.09 -55 44.18 -55 1 C-37.0197164 -2.59605672 -18.33636339 0 0 0 Z " fill="#F6A332" transform="translate(310,305)"/>
<path d="M0 0 C-0.72735282 5.89963952 -2.00877087 11.59359808 -3.375 17.375 C-4.97085302 24.225936 -6.4274332 31.05772758 -7.5625 38 C-8.79911757 45.5300056 -10.72600618 52.7162939 -13 60 C-16.64984816 58.44182816 -19.1685954 56.18875601 -22.0625 53.5 C-24.65920335 51.09463269 -27.05106306 48.96595796 -30 47 C-34.03371714 47.27188192 -35.95454114 48.47234495 -38.70703125 51.3515625 C-39.37669922 52.03863281 -40.04636719 52.72570312 -40.73632812 53.43359375 C-41.42146484 54.15675781 -42.10660156 54.87992188 -42.8125 55.625 C-47.40385751 60.39649689 -52.02661876 64.97440765 -57.05151367 69.28955078 C-60.25256095 72.09954167 -63.2491965 75.10427966 -66.25 78.125 C-66.848125 78.71925781 -67.44625 79.31351562 -68.0625 79.92578125 C-70.6437055 82.51269738 -73.03783265 85.04825593 -75.296875 87.9296875 C-75.85890625 88.61289062 -76.4209375 89.29609375 -77 90 C-77.66 90 -78.32 90 -79 90 C-79.37125 90.86625 -79.37125 90.86625 -79.75 91.75 C-81.18299988 94.32939979 -82.78424676 96.06121592 -85 98 C-85.66 98 -86.32 98 -87 98 C-87 98.66 -87 99.32 -87 100 C-88.64453125 101.62109375 -88.64453125 101.62109375 -90.8125 103.4375 C-93.31102718 105.54463676 -95.7242056 107.65241398 -98 110 C-103.05562742 108.52739609 -105.79441633 105.51612785 -109.3125 101.8125 C-110.46828851 100.62718405 -111.62583181 99.44357654 -112.78515625 98.26171875 C-113.33961426 97.69501465 -113.89407227 97.12831055 -114.46533203 96.54443359 C-117.48767318 93.50286024 -120.70109561 90.73318318 -124 88 C-124.72703125 87.34902344 -125.4540625 86.69804687 -126.203125 86.02734375 C-131.01098505 81.88280803 -131.01098505 81.88280803 -136.9375 80 C-142.9300672 80.56105709 -147.03930939 85.93525183 -151 90 C-152.20833333 91.20833333 -153.41666667 92.41666667 -154.625 93.625 C-155.13963303 94.15009155 -155.65426605 94.67518311 -156.18449402 95.21618652 C-157.98283735 96.98313695 -159.84524698 98.61992036 -161.76293945 100.25585938 C-165.77446854 103.74563504 -169.48476999 107.45063663 -173.16796875 111.28125 C-174.48558196 112.63093717 -175.80396318 113.97987494 -177.12304688 115.328125 C-179.17117883 117.42593411 -181.21422401 119.52783077 -183.24487305 121.64257812 C-185.2264623 123.70257815 -187.22639165 125.74315309 -189.23046875 127.78125 C-189.83577927 128.42066528 -190.44108978 129.06008057 -191.06474304 129.71887207 C-195.30721754 133.98853214 -195.30721754 133.98853214 -198.72851562 134.04516602 C-202.14374045 132.4737368 -204.65110348 130.02775348 -207.3125 127.4375 C-207.86228516 126.91736328 -208.41207031 126.39722656 -208.97851562 125.86132812 C-210.32730346 124.58291183 -211.66480436 123.29260567 -213 122 C-212.42667654 118.35818477 -211.06870972 116.71572695 -208.4375 114.1875 C-207.47650391 113.24970703 -207.47650391 113.24970703 -206.49609375 112.29296875 C-204.51034186 110.46881169 -202.49655156 108.71144358 -200.44946289 106.95825195 C-195.51709234 102.64630537 -190.92078625 98.02815377 -186.3125 93.375 C-185.41055908 92.46927246 -184.50861816 91.56354492 -183.5793457 90.63037109 C-180.71711436 87.75600431 -177.85804198 84.8785306 -175 82 C-171.23225667 78.20524662 -167.46084455 74.41418619 -163.6875 70.625 C-162.40903198 69.33408447 -162.40903198 69.33408447 -161.10473633 68.01708984 C-156.75029125 63.64498404 -152.33240919 59.42474926 -147.6428833 55.41259766 C-146.26583009 54.22856825 -144.9318554 52.99468743 -143.609375 51.75 C-142.99578125 51.1725 -142.3821875 50.595 -141.75 50 C-141.12609375 49.401875 -140.5021875 48.80375 -139.859375 48.1875 C-138 47 -138 47 -136.07592773 47.265625 C-133.81537762 48.06531155 -132.65735497 48.9217382 -130.92578125 50.5625 C-130.34868408 51.10447021 -129.77158691 51.64644043 -129.17700195 52.20483398 C-128.56171631 52.79723877 -127.94643066 53.38964355 -127.3125 54 C-126.66692139 54.60851807 -126.02134277 55.21703613 -125.35620117 55.84399414 C-121.61244409 59.39991488 -117.96787887 63.03792325 -114.375 66.74609375 C-113.23357544 67.91688477 -113.23357544 67.91688477 -112.0690918 69.11132812 C-110.57954668 70.64680209 -109.10151718 72.19354231 -107.63598633 73.75195312 C-106.95818115 74.45126953 -106.28037598 75.15058594 -105.58203125 75.87109375 C-104.68834839 76.81359985 -104.68834839 76.81359985 -103.77661133 77.77514648 C-102.06741215 79.2350301 -102.06741215 79.2350301 -99.89233398 78.7956543 C-97.41614244 77.75451016 -96.08128553 76.33492955 -94.25 74.375 C-91.78188641 71.75133303 -89.24443655 69.32831263 -86.5078125 66.9921875 C-81.17857039 62.37309789 -76.2264107 57.37638216 -71.25244141 52.3828125 C-69.61084038 50.73579365 -67.96388532 49.09426198 -66.31640625 47.453125 C-65.26530375 46.40136262 -64.21451099 45.34929058 -63.1640625 44.296875 C-62.6745108 43.80934753 -62.18495911 43.32182007 -61.68057251 42.81951904 C-59.50643412 40.63030288 -57.72009992 38.58014988 -56 36 C-55.34 36 -54.68 36 -54 36 C-53.7525 35.443125 -53.505 34.88625 -53.25 34.3125 C-51.78393985 31.60028873 -49.97010529 29.36412635 -48 27 C-48.44730469 26.55269531 -48.89460937 26.10539062 -49.35546875 25.64453125 C-50.61002756 24.38997244 -51.86253373 23.13335856 -53.11328125 21.875 C-54.67250715 20.32545874 -56.26912573 18.81364334 -57.875 17.3125 C-60.02182966 14.9762442 -60.40877124 13.98759216 -61 11 C-55.18591733 8.65408379 -49.57008142 7.12122655 -43.41796875 5.95703125 C-42.52314285 5.78370773 -41.62831696 5.61038422 -40.70637512 5.43180847 C-38.82373722 5.0695147 -36.94039371 4.71087019 -35.05639648 4.35571289 C-32.20361809 3.81555189 -29.35482867 3.25712608 -26.50585938 2.69726562 C-8.81118695 -0.71085109 -8.81118695 -0.71085109 0 0 Z " fill="#1854A7" transform="translate(389,175)"/>
<path d="M0 0 C18.15 0 36.3 0 55 0 C55 30.03 55 60.06 55 91 C46.853125 91.020625 38.70625 91.04125 30.3125 91.0625 C27.74766846 91.071604 25.18283691 91.08070801 22.5402832 91.09008789 C20.50211642 91.09300914 18.46394905 91.09555721 16.42578125 91.09765625 C14.84476624 91.1053302 14.84476624 91.1053302 13.23181152 91.11315918 C12.21727905 91.11328003 11.20274658 91.11340088 10.1574707 91.11352539 C9.28032913 91.115746 8.40318756 91.11796661 7.49946594 91.12025452 C5 91 5 91 0 90 C0 60.3 0 30.6 0 0 Z " fill="#F6A332" transform="translate(179,342)"/>
<path d="M0 0 C42.57 0 85.14 0 129 0 C129 6.27 129 12.54 129 19 C115.72419802 19.02275652 102.44840938 19.04103259 89.17259216 19.05181217 C83.0055162 19.05699054 76.83845449 19.06399433 70.67138672 19.07543945 C64.69964461 19.08645043 58.72791604 19.09231463 52.75616455 19.09487724 C50.49847196 19.09669918 48.24077995 19.10025517 45.98309326 19.10573006 C30.62821323 19.14142272 15.3365129 18.7573686 0 18 C0 12.06 0 6.12 0 0 Z " fill="#F6A435" transform="translate(180,129)"/>
<path d="M0 0 C28.05 0 56.1 0 85 0 C85 5.94 85 11.88 85 18 C56.95 18 28.9 18 0 18 C0 12.06 0 6.12 0 0 Z " fill="#F6A332" transform="translate(180,166)"/>
</svg>
