<svg xmlns="http://www.w3.org/2000/svg" viewBox="0 0 32 32" width="32" height="32">
  <defs>
    <linearGradient id="fg" x1="0%" y1="0%" x2="100%" y2="100%">
      <stop offset="0%" stop-color="#00D4AA"/>
      <stop offset="100%" stop-color="#0057FF"/>
    </linearGradient>
  </defs>
  <!-- Rounded square background -->
  <rect width="32" height="32" rx="7" fill="url(#fg)"/>
  <!-- S letterform in white -->
  <path d="M9 13 C9 10.5 11 8.5 14 8.5 L19 8.5 C20.5 8.5 21.5 9.5 21.5 11 C21.5 12.5 20.5 13.5 19 13.5 L14 13.5 C11 13.5 9 15 9 17.5 C9 20 11 21.5 14 21.5 L19 21.5 C20.5 21.5 21.5 22.5 21.5 24 C21.5 25.5 20.5 26.5 19 26.5 L14 26.5 C11 26.5 9 24.5 9 22"
        fill="none" stroke="white" stroke-width="2.2" stroke-linecap="round"/>
  <!-- Orange dot accent -->
  <circle cx="24" cy="8" r="3" fill="#F8A41B"/>
</svg>