<?xml version="1.0" encoding="utf-8"?>
<svg xmlns="http://www.w3.org/2000/svg" viewBox="-5 70 555 235" width="277" height="117" xmlns:bx="https://boxy-svg.com">
  <defs>
    <style bx:fonts="EB Garamond">@import url(https://fonts.googleapis.com/css2?family=EB+Garamond%3Aital%2Cwght%400%2C400..800%3B1%2C400..800&amp;display=swap);</style>
  </defs>
  <g>
    <g fill="#fefefe" transform="matrix(1, 0, 0, 1, 0.500009, 2.992715)">
      <path d="M148.66 256.46 c-1.92 -0.84 -2.88 -2.76 -2.64 -5.44 0.16 -1.44 0.48 -2.28 1.24 -3.04 1 -1 1.20 -1 7.48 -1.20 l6.48 -0.20 -0.12 3.44 c-0.16 3.28 -0.20 3.48 -1.56 4.88 -0.76 0.76 -2 1.60 -2.80 1.80 -2.08 0.60 -6.40 0.44 -8.08 -0.24z"/>
      <path d="M214.59 254.94 c-4.16 -1.12 -6.08 -4.52 -6.08 -10.64 0.04 -4.20 0.68 -6 2.88 -8.12 1.52 -1.44 3.20 -1.88 7.12 -1.88 3.84 0 5.72 0.88 7.60 3.52 1.12 1.64 1.20 2 1.32 6.16 0.12 3.40 0 4.80 -0.52 6.16 -1.64 4.32 -6.72 6.28 -12.32 4.80z"/>
      <path d="M277.65 256.54 c-1.92 -0.84 -2.56 -2.08 -2.56 -4.92 0 -2.04 0.16 -2.68 0.96 -3.60 l0.96 -1.08 6.68 -0.16 6.72 -0.16 -0.20 2.92 c-0.24 3.52 -0.92 5.04 -3 6.48 -1.40 0.96 -1.92 1.08 -4.96 1.08 -1.92 -0.04 -3.88 -0.28 -4.60 -0.56z"/>
      <path d="M349.06 240.90 c0 -2.12 0.64 -3.56 2.28 -5.04 1.60 -1.52 3.36 -1.96 7.48 -1.96 3.24 0 3.84 0.12 5.12 1 1.76 1.20 3.12 3.88 3.12 6.12 l0 1.68 -9 0 -9 0 0 -1.80z"/>
    </g>
    <g transform="matrix(1, 0, 0, 1, -209.2271, 20.916336)">
      <g>
        <path d="M 216.828 199.735 L 216.948 176.025 L 235.658 175.905 L 254.328 175.825 L 254.328 187.225 L 254.328 198.625 L 286.438 198.625 C 322.108 198.625 322.908 198.585 328.098 196.105 C 331.578 194.425 335.338 191.585 337.458 189.065 C 339.578 186.545 342.098 181.825 342.938 178.745 C 344.458 173.265 345.898 176.865 345.898 186.065 C 345.898 197.385 342.218 206.335 334.498 214.015 C 330.658 217.815 326.338 220.735 323.138 221.655 C 322.138 221.935 320.578 222.455 319.698 222.775 C 318.298 223.295 311.778 223.375 267.398 223.415 L 216.738 223.415 L 216.818 199.745 L 216.828 199.735 Z" fill="#104fa8" style="stroke-width: 1;"/>
        <path d="M 307.508 165.235 L 307.508 138.645 L 316.028 138.725 L 324.508 138.845 L 324.628 165.355 L 324.708 191.825 L 316.108 191.825 L 307.508 191.825 L 307.508 165.235 L 307.508 165.235 Z" fill="#104fa8" style="stroke-width: 1;"/>
        <path d="M 249.738 162.475 C 240.658 158.715 233.708 153.835 227.708 147.045 C 221.348 139.805 217.468 131.935 215.308 121.855 C 214.268 117.055 214.268 105.425 215.268 100.665 C 218.708 84.635 227.818 72.155 241.338 65.035 C 245.218 62.955 249.098 61.475 250.498 61.475 C 251.218 61.475 251.138 61.635 249.938 62.555 C 243.298 67.595 238.218 76.265 236.108 86.345 C 235.148 90.865 235.148 99.975 236.068 104.775 C 238.108 114.975 242.748 123.525 250.218 130.925 L 254.338 135.045 L 254.338 149.435 C 254.338 166.025 254.858 164.585 249.738 162.465 L 249.738 162.475 Z" fill="#104fa8" style="stroke-width: 1;"/>
        <path d="M 261.648 151.635 L 259.328 149.435 L 270.928 138.035 C 277.328 131.755 282.768 126.635 283.088 126.635 C 283.408 126.635 286.048 128.995 288.968 131.915 L 294.288 137.195 L 296.808 134.795 C 299.488 132.315 304.968 126.795 308.688 122.915 L 310.888 120.595 L 308.368 118.355 C 307.008 117.115 306.008 115.995 306.208 115.795 C 306.688 115.315 321.838 112.235 323.798 112.235 L 325.438 112.235 L 324.918 114.275 C 324.598 115.395 323.678 119.595 322.878 123.595 C 322.078 127.555 321.318 130.915 321.238 130.995 C 321.158 131.115 319.958 130.075 318.558 128.675 C 316.558 126.715 315.838 126.195 315.198 126.395 C 314.758 126.555 310.038 131.075 304.758 136.435 C 299.478 141.835 294.998 146.235 294.758 146.235 C 294.518 146.235 292.118 144.075 289.398 141.435 C 284.198 136.435 283.638 136.115 281.598 137.195 C 280.998 137.515 276.918 141.395 272.518 145.795 C 268.118 150.235 264.398 153.835 264.238 153.835 C 264.078 153.835 262.918 152.835 261.638 151.635 L 261.648 151.635 Z" fill="#104fa8" style="stroke-width: 1;"/>
        <path d="M 241.338 105.855 C 240.698 103.135 240.538 101.015 240.538 95.455 C 240.578 89.095 240.658 88.095 241.658 84.455 C 245.138 71.905 253.538 63.105 265.568 59.385 L 268.528 58.465 L 311.828 58.345 L 355.088 58.225 L 355.088 61.745 L 355.088 65.265 L 348.768 65.305 C 343.128 65.345 342.328 65.425 340.888 66.185 C 340.048 66.665 339.048 67.065 338.688 67.065 C 337.488 67.065 334.448 69.345 332.288 71.825 C 330.688 73.665 329.888 74.265 329.128 74.265 C 328.568 74.265 326.648 74.585 324.928 74.945 C 322.248 75.545 321.448 75.945 319.808 77.425 C 318.728 78.385 317.408 80.025 316.888 81.065 L 315.928 82.985 L 291.018 83.185 C 277.308 83.305 265.068 83.585 263.828 83.825 C 259.028 84.625 250.998 89.545 247.958 93.545 C 245.798 96.425 244.078 100.185 243.318 103.825 C 242.038 109.785 242.158 109.625 241.318 105.865 L 241.338 105.855 Z" fill="#104fa8" style="stroke-width: 1;"/>
      </g>
      <g>
        <path d="M 337.538 217.565 C 345.618 209.205 349.578 200.935 350.688 189.895 C 351.768 179.455 348.888 167.945 342.848 158.705 C 340.768 155.505 335.288 149.545 332.488 147.465 L 331.288 146.545 L 331.168 132.195 C 331.088 119.715 331.128 117.805 331.648 117.605 C 333.048 117.085 341.048 120.485 346.318 123.885 C 360.188 132.805 368.828 146.075 371.268 162.425 C 373.228 175.575 370.188 188.935 362.628 200.405 C 358.868 206.085 347.958 216.555 344.758 217.555 C 344.318 217.715 343.718 218.075 343.478 218.395 C 343.198 218.715 342.718 218.995 342.438 218.995 C 342.118 218.995 340.918 219.475 339.758 220.035 C 338.638 220.595 336.798 221.155 335.678 221.275 L 333.678 221.515 L 337.518 217.555 L 337.538 217.565 Z" fill="#f8a41b" style="stroke-width: 1;"/>
        <path d="M 260.528 190.945 C 260.408 190.425 260.368 184.105 260.408 176.835 L 260.528 163.645 L 269.008 163.525 L 277.528 163.445 L 277.528 177.635 L 277.528 191.825 L 269.128 191.825 C 260.768 191.825 260.728 191.825 260.528 190.945 L 260.528 190.945 Z" fill="#f8a41b" style="stroke-width: 1;"/>
        <path d="M 283.918 172.265 L 283.918 152.675 L 286.038 152.435 C 287.158 152.315 290.998 152.235 294.518 152.315 L 300.918 152.435 L 300.918 172.025 L 300.918 191.615 L 292.438 191.735 L 283.918 191.815 L 283.918 172.265 Z" fill="#f8a41b" style="stroke-width: 1;"/>
        <path d="M 260.728 112.255 L 260.728 109.455 L 273.918 109.455 L 287.108 109.455 L 287.108 112.255 L 287.108 115.055 L 273.918 115.055 L 260.728 115.055 L 260.728 112.255 Z" fill="#f8a41b" style="stroke-width: 1;"/>
        <path d="M 332.258 105.455 L 317.228 105.255 L 315.548 104.135 C 311.988 101.775 310.428 97.335 311.708 93.415 C 312.828 90.055 315.108 88.175 319.148 87.295 C 319.988 87.095 320.308 86.695 320.668 85.255 C 321.268 82.935 323.428 80.495 325.748 79.615 C 327.068 79.095 328.228 78.975 330.428 79.175 L 333.308 79.375 L 334.508 77.375 C 335.988 74.895 338.708 72.575 341.708 71.215 C 343.708 70.295 344.548 70.135 348.668 70.095 C 352.908 70.055 353.508 70.135 355.508 71.095 C 359.828 73.135 363.228 77.135 364.308 81.575 C 364.668 82.895 364.988 83.455 365.468 83.455 C 368.948 83.455 373.788 87.375 374.868 91.015 C 376.348 96.055 375.548 99.015 371.708 102.975 L 368.868 105.855 L 358.108 105.775 C 352.148 105.735 340.558 105.575 332.278 105.455 L 332.258 105.455 Z" fill="#f8a41b" style="stroke-width: 1;"/>
        <path d="M 261.008 103.575 C 260.848 103.455 260.728 102.095 260.728 100.575 L 260.728 97.855 L 280.718 97.855 L 300.748 97.855 L 300.628 100.775 L 300.508 103.655 L 280.878 103.775 C 270.078 103.815 261.128 103.735 261.008 103.575 L 261.008 103.575 Z" fill="#f8a41b" style="stroke-width: 1;"/>
      </g>
    </g>
  </g>
  <g style="" transform="matrix(1.047896, 0, 0, 1.047896, 42.940079, -95.87021)">
    <g>
      <path d="M 126.988 291.975 C 123.948 291.295 119.708 289.735 117.428 288.375 L 115.668 287.335 L 116.628 285.095 C 117.868 282.295 119.148 279.775 119.348 279.775 C 119.428 279.775 120.908 280.495 122.668 281.375 C 128.268 284.215 135.738 285.015 139.418 283.095 C 141.458 282.055 142.418 279.775 141.538 277.975 C 140.698 276.255 139.178 275.575 132.538 273.815 C 125.458 271.975 122.658 270.775 120.418 268.735 C 117.978 266.575 117.098 264.575 116.858 260.935 C 116.618 256.495 117.458 254.255 120.538 251.135 C 123.098 248.575 125.618 247.335 129.738 246.535 C 132.698 245.975 138.058 246.095 141.498 246.815 C 144.978 247.535 150.378 249.855 150.378 250.615 C 150.378 251.015 147.778 257.015 147.298 257.735 C 147.258 257.815 145.898 257.335 144.298 256.655 C 138.378 254.215 133.138 253.975 129.628 256.055 C 127.388 257.335 127.188 257.615 127.188 259.375 C 127.188 262.295 128.348 263.015 137.388 265.575 C 144.748 267.655 147.228 268.775 149.468 271.015 C 151.468 272.975 152.388 275.415 152.388 278.775 C 152.388 283.615 150.668 286.815 146.428 289.935 C 145.348 290.735 143.908 291.495 143.228 291.615 C 142.548 291.775 141.868 292.055 141.748 292.215 C 141.428 292.775 129.668 292.575 126.998 291.975 L 126.988 291.975 Z" fill="#104fa8" style="stroke-width: 1;"/>
      <path d="M 164.968 292.015 C 162.488 291.375 160.048 290.135 158.928 288.895 C 155.168 284.775 155.368 278.335 159.368 274.625 C 162.048 272.145 164.448 271.585 172.078 271.585 L 178.358 271.585 L 178.358 270.345 C 178.358 268.705 176.878 266.545 175.158 265.705 C 172.998 264.585 168.878 264.745 165.638 266.025 C 164.158 266.625 162.798 267.225 162.558 267.425 C 161.598 268.345 160.878 267.665 159.438 264.625 C 158.638 262.865 157.958 261.225 157.958 261.025 C 157.958 260.425 161.358 258.785 164.558 257.865 C 174.638 254.905 184.108 257.825 187.228 264.865 C 188.228 267.105 188.708 273.465 188.748 284.095 L 188.748 291.775 L 183.948 291.775 L 179.148 291.775 L 179.148 290.575 C 179.148 289.055 178.188 288.975 176.708 290.415 C 174.708 292.335 169.268 293.095 164.948 292.015 L 164.968 292.015 Z M 173.968 285.375 C 174.768 285.175 176.008 284.375 176.768 283.575 C 177.888 282.415 178.128 281.815 178.288 279.935 L 178.488 277.655 L 173.208 277.855 C 168.448 278.055 167.808 278.175 166.968 278.975 C 165.688 280.175 165.408 281.535 166.168 283.175 C 167.248 285.375 170.568 286.335 173.968 285.375 L 173.968 285.375 Z" fill="#104fa8" style="stroke-width: 1;"/>
      <path d="M 231.458 291.975 C 222.618 289.735 217.508 282.615 218.068 273.385 C 218.508 265.705 222.708 260.235 229.948 257.755 C 233.708 256.475 239.988 256.515 243.338 257.795 C 248.058 259.635 251.178 262.315 253.178 266.395 C 256.098 272.395 255.618 279.505 251.858 285.185 C 250.298 287.505 246.338 290.745 243.938 291.585 C 241.418 292.505 234.378 292.745 231.458 291.985 L 231.458 291.975 Z M 239.818 283.335 C 241.458 282.815 243.778 280.255 244.378 278.255 C 244.618 277.375 244.778 275.335 244.698 273.655 C 244.538 271.055 244.338 270.375 243.298 268.895 C 241.138 265.775 237.538 264.615 233.578 265.775 C 230.458 266.655 228.218 270.135 228.178 274.175 C 228.098 281.455 233.098 285.415 239.818 283.335 Z" fill="#104fa8" style="stroke-width: 1;"/>
      <path d="M 293.518 291.975 C 288.518 290.575 285.638 287.495 285.238 283.095 C 284.918 279.735 285.638 277.615 287.838 275.295 C 290.758 272.295 292.998 271.615 300.908 271.495 L 307.308 271.415 L 307.188 270.135 C 307.028 268.015 305.988 266.575 303.988 265.695 C 301.428 264.535 296.908 264.935 293.028 266.575 C 291.468 267.255 290.068 267.695 289.908 267.575 C 289.548 267.335 286.708 261.455 286.708 260.895 C 286.708 260.375 291.308 258.295 294.308 257.535 C 298.308 256.495 304.548 256.575 308.258 257.735 C 310.778 258.495 311.578 258.975 313.498 260.895 C 317.098 264.535 317.218 264.975 317.418 279.485 L 317.578 291.765 L 312.898 291.765 C 308.578 291.765 308.218 291.725 308.018 290.965 C 307.738 289.885 306.778 289.965 304.578 291.205 C 302.178 292.525 296.858 292.885 293.498 291.965 L 293.518 291.975 Z M 304.438 284.695 C 306.238 283.415 307.038 282.055 307.398 279.535 L 307.638 277.655 L 302.118 277.855 C 296.718 278.055 296.558 278.055 295.638 279.135 C 294.558 280.415 294.438 282.375 295.358 283.735 C 296.278 285.015 298.158 285.735 300.678 285.775 C 302.438 285.775 303.198 285.535 304.438 284.695 L 304.438 284.695 Z" fill="#104fa8" style="stroke-width: 1;"/>
      <path d="M 197.958 278.785 L 197.958 265.795 L 195.358 265.795 L 192.758 265.795 L 192.758 261.995 L 192.758 258.235 L 195.278 258.115 L 197.758 257.995 L 198.038 254.915 C 198.398 251.155 199.318 248.875 201.398 246.875 C 203.598 244.755 206.598 243.715 210.558 243.675 C 213.598 243.675 218.398 244.635 218.358 245.315 C 218.318 245.475 217.918 247.115 217.398 248.995 C 216.718 251.395 216.278 252.355 215.918 252.235 C 214.598 251.875 211.518 251.715 210.558 251.955 C 208.678 252.435 207.958 253.555 207.958 255.995 L 207.958 258.195 L 212.158 258.195 L 216.358 258.195 L 216.358 261.995 L 216.358 265.795 L 212.638 265.795 C 210.278 265.795 208.758 265.955 208.438 266.275 C 208.078 266.635 207.958 270.075 207.958 279.265 L 207.958 291.775 L 202.958 291.775 L 197.958 291.775 L 197.958 278.785 L 197.958 278.785 Z" fill="#104fa8" style="stroke-width: 1;"/>
      <path d="M 261.128 274.585 L 261.128 257.395 L 265.728 257.395 L 270.328 257.395 L 270.328 259.875 L 270.328 262.355 L 271.728 260.715 C 273.488 258.675 276.008 257.395 278.368 257.395 C 279.368 257.395 280.368 257.195 280.608 256.955 C 280.888 256.675 281.368 256.595 281.688 256.715 C 282.208 256.915 282.328 257.675 282.328 260.675 C 282.328 265.595 282.128 266.195 280.688 266.195 C 278.768 266.195 274.608 267.475 273.568 268.355 C 271.368 270.275 271.128 271.555 271.128 282.105 L 271.128 291.785 L 266.128 291.785 L 261.128 291.785 L 261.128 274.595 L 261.128 274.585 Z" fill="#104fa8" style="stroke-width: 1;"/>
    </g>
    <g>
      <path d="M 372.008 292.015 C 362.768 289.775 357.218 281.295 358.698 271.705 C 359.738 264.785 363.738 259.985 370.378 257.755 C 372.538 257.035 373.578 256.955 377.498 257.075 C 381.698 257.235 382.298 257.315 384.538 258.475 C 389.138 260.875 392.218 264.915 393.298 270.075 C 394.018 273.395 394.058 277.075 393.418 277.715 C 393.058 278.075 389.778 278.195 381.218 278.195 C 371.218 278.195 369.458 278.275 369.258 278.795 C 368.858 279.755 370.658 282.115 372.618 283.315 C 374.258 284.235 374.938 284.395 377.738 284.395 C 380.618 284.395 381.258 284.235 383.498 283.115 C 384.858 282.395 386.258 281.795 386.538 281.795 C 386.818 281.795 388.058 282.995 389.338 284.435 L 391.658 287.075 L 390.018 288.555 C 387.218 290.995 386.178 291.635 384.218 292.115 C 381.778 292.715 374.698 292.675 372.018 292.035 L 372.008 292.015 Z M 384.088 270.305 C 383.248 266.865 380.768 264.985 377.208 264.985 C 373.288 264.985 370.688 266.305 369.248 269.065 C 368.008 271.425 367.968 271.385 376.528 271.385 L 384.368 271.385 L 384.088 270.305 Z" fill="#f8a41b" style="stroke-width: 1;"/>
      <path d="M 411.868 292.135 C 408.668 291.495 404.508 289.175 402.348 286.775 C 392.548 276.095 398.428 259.105 412.508 257.305 C 417.508 256.705 421.668 257.025 424.348 258.265 C 426.988 259.465 429.788 261.945 430.868 263.985 C 431.628 265.345 431.628 265.385 430.868 266.145 C 429.868 267.145 425.508 269.385 424.628 269.385 C 424.228 269.385 423.508 268.865 422.988 268.225 C 421.188 265.985 420.388 265.745 416.068 266.025 C 412.268 266.305 412.068 266.385 410.548 267.745 C 408.468 269.625 407.868 271.145 407.868 274.545 C 407.868 276.785 408.068 277.705 408.988 279.425 C 411.708 284.665 418.628 285.745 422.658 281.585 C 423.418 280.825 424.258 280.185 424.578 280.185 C 425.458 280.185 431.098 283.385 431.338 284.025 C 431.818 285.265 427.418 290.185 424.698 291.505 C 423.178 292.225 422.058 292.385 418.258 292.465 C 415.738 292.505 412.858 292.345 411.858 292.145 L 411.868 292.135 Z" fill="#f8a41b" style="stroke-width: 1;"/>
      <path d="M 337.298 291.825 L 335.298 291.585 L 335.178 273.515 L 335.098 255.405 L 328.298 255.405 L 321.498 255.405 L 321.498 251.205 L 321.498 247.005 L 340.688 247.005 L 359.878 247.005 L 359.878 250.925 C 359.878 253.445 359.718 255.005 359.398 255.325 C 359.078 255.645 356.958 255.805 352.598 255.805 C 347.518 255.805 346.198 255.925 346.038 256.365 C 345.918 256.685 345.718 264.805 345.558 274.435 L 345.278 291.985 L 342.278 292.025 C 340.638 292.065 338.398 291.945 337.278 291.825 L 337.298 291.825 Z" fill="#f8a41b" style="stroke-width: 1;"/>
      <path d="M 436.418 290.305 C 436.018 288.145 436.498 245.405 436.938 244.965 C 437.138 244.765 439.378 244.645 441.898 244.685 L 446.458 244.805 L 446.578 252.725 L 446.658 260.645 L 448.058 259.605 C 450.498 257.725 453.058 257.005 457.418 257.005 C 460.978 257.005 461.538 257.125 463.778 258.245 C 466.698 259.685 468.698 261.885 469.938 264.965 C 470.778 267.085 470.858 267.925 470.978 279.515 L 471.138 291.795 L 466.098 291.795 L 461.098 291.795 L 460.978 281.115 C 460.858 270.835 460.818 270.315 459.938 268.675 C 458.698 266.355 457.818 266.035 453.658 266.395 C 450.778 266.635 450.018 266.835 448.978 267.715 C 446.778 269.555 446.658 270.355 446.658 281.585 L 446.658 291.785 L 441.658 291.785 L 436.698 291.785 L 436.418 290.305 L 436.418 290.305 Z" fill="#f8a41b" style="stroke-width: 1;"/>
    </g>
  </g>
  <text style="fill: rgb(115, 147, 179); font-family: &quot;EB Garamond&quot;; font-size: 28.4px; font-weight: 700; paint-order: fill; stroke-linecap: square; stroke-width: 1.351px; white-space: pre;"><tspan style="fill: rgb(255, 95, 31); paint-order: stroke;" x="181.516" y="240.988">Think IT,</tspan><tspan> </tspan><tspan style="fill: rgb(138, 154, 91);">Think</tspan><tspan style="fill: rgb(84, 178, 62);"> </tspan><tspan style="fill: rgb(220, 20, 60);">Safora</tspan><tspan style="fill: rgb(0, 128, 128);">Tech</tspan></text>
</svg>