<?xml version="1.0" encoding="utf-8"?>
<!DOCTYPE svg PUBLIC "-//W3C//DTD SVG 1.0//EN" "http://www.w3.org/TR/2001/REC-SVG-20010904/DTD/svg10.dtd">
<svg version="1.0" xmlns="http://www.w3.org/2000/svg" width="499px" height="333px" viewBox="0 0 499 333" preserveAspectRatio="xMidYMid meet">
 <g fill="#fefefe">
  <path d="M0 166.33 l0 -166.33 249.50 0 249.50 0 0 166.33 0 166.33 -249.50 0 -249.50 0 0 -166.33z m148.86 117.07 c0.36 -0.24 0.36 -0.32 0 -0.32 -0.40 0 -0.52 -1.04 -0.52 -3.76 0 -2.64 0.16 -3.84 0.52 -3.96 0.28 -0.12 0.20 -0.24 -0.20 -0.24 -0.68 -0.04 -0.72 0.48 -0.64 6.08 0.04 3.32 0.12 5.28 0.20 4.28 0.12 -0.96 0.40 -1.92 0.64 -2.08z m12.95 -5 c-0.04 -1.72 -0.12 -0.40 -0.12 2.88 0 3.32 0.08 4.72 0.12 3.12 0.08 -1.60 0.08 -4.28 0 -6z m36.19 2.56 c0.08 -3.24 0 -5.88 -0.16 -5.88 -0.20 0 -0.32 2.72 -0.32 6.08 0 3.32 0.08 5.96 0.20 5.84 0.08 -0.08 0.24 -2.80 0.28 -6.04z m21.63 -5.60 c0.76 -0.16 0.72 -0.16 -0.20 -0.24 l-1.12 -0.04 0.08 6.12 0.08 6.08 0.12 -5.88 c0.12 -5.72 0.16 -5.88 1.04 -6.04z m7.76 3.04 c-0.04 -1.72 -0.12 -0.40 -0.12 2.88 0 3.32 0.08 4.72 0.12 3.12 0.08 -1.60 0.08 -4.28 0 -6z m26.55 2.88 c0 -3.04 -0.12 -5.60 -0.24 -5.72 -0.12 -0.12 -0.20 2.44 -0.20 5.72 0 3.28 0.08 5.84 0.20 5.72 0.12 -0.12 0.24 -2.68 0.24 -5.72z m9.04 -2.88 c-0.04 -1.72 -0.12 -0.40 -0.12 2.88 0 3.32 0.08 4.72 0.12 3.12 0.08 -1.60 0.08 -4.28 0 -6z m7.80 1.48 l1.60 0 -1.52 -1.88 c-0.80 -1.08 -1.64 -2.08 -1.84 -2.28 -0.16 -0.24 -0.28 2.28 -0.24 5.60 0.08 4.32 0.12 4.96 0.20 2.28 l0.16 -3.72 1.64 0z m29.39 -1.48 c-0.04 -1.72 -0.12 -0.40 -0.12 2.88 0 3.32 0.08 4.72 0.12 3.12 0.08 -1.60 0.08 -4.28 0 -6z m102.08 -3.04 l2 -0.16 -2.08 0.04 -2.12 0.04 0 6 -0.04 6 0.12 -5.88 0.16 -5.88 1.96 -0.16z m45.30 0.32 c0.48 -0.08 1.44 -0.24 2.08 -0.32 0.68 -0.08 0.16 -0.20 -1.08 -0.24 l-2.32 -0.04 0.08 6.12 0.08 6.08 0.12 -5.68 c0.12 -5.52 0.16 -5.72 1.04 -5.92z m-305.28 2.92 l-0.12 -2.92 -1.08 1.96 c-0.64 1.08 -1.12 2 -1.12 2.08 0 0.08 0.44 0.16 1 0.16 1 0 1 0.04 1.08 3.52 0.08 3.28 0.08 3.32 0.20 0.80 0.08 -1.48 0.12 -4 0.04 -5.60z m49.06 -3.16 l2 -0.24 -2.40 -0.04 -2.40 -0.08 0.20 5.88 0.20 5.92 0.20 -5.60 0.20 -5.60 2 -0.24z m86.89 5.76 c-0.08 -5.12 -0.08 -5.24 -0.20 -1.40 -0.12 3.76 -0.20 4.08 -0.92 4.08 -0.80 0 -0.76 0.04 0.08 1.40 0.52 0.76 0.96 1.40 1.04 1.40 0.04 0 0.04 -2.48 0 -5.48z m67.09 0.36 c-0.44 -0.40 -0.48 0.12 -0.24 2.72 l0.20 2.60 0.12 -2.56 c0.08 -1.40 0.04 -2.64 -0.08 -2.76z m41.74 2.16 c0.20 -0.20 0.20 -0.68 -0.04 -1.12 -0.24 -0.44 -0.36 -2.20 -0.28 -3.96 0.08 -1.72 0 -3.16 -0.16 -3.16 -0.20 0 -0.28 2.56 -0.24 5.72 0 3.12 0.12 5.04 0.20 4.28 0.12 -0.76 0.32 -1.56 0.52 -1.76z m43.22 -2.68 c-0.04 -3.88 0.08 -5.40 0.44 -5.64 0.36 -0.20 0.32 -0.32 -0.16 -0.32 -0.64 0 -0.72 0.56 -0.72 5.88 0 3.20 0.12 5.76 0.24 5.60 0.12 -0.12 0.24 -2.60 0.20 -5.52z m-94.12 2.36 c-0.08 -0.52 -0.16 -0.12 -0.16 0.88 0 1 0.08 1.40 0.16 0.92 0.08 -0.52 0.08 -1.32 0 -1.80z m-162.49 -3.76 l0.08 -3.96 3.20 -0.24 3.20 -0.20 -3.48 -0.08 -3.52 -0.08 0 4.48 c0 5.48 0.40 5.52 0.52 0.08z m207.28 -2.24 c-0.08 -1.16 -0.12 -0.32 -0.12 1.88 0 2.20 0.04 3.16 0.12 2.12 0.08 -1.04 0.08 -2.84 0 -4z m-9.20 -0.40 c-0.08 -1.16 -0.12 -0.32 -0.12 1.88 0 2.20 0.04 3.16 0.12 2.12 0.08 -1.04 0.08 -2.84 0 -4z m-271.89 3.40 c-0.12 -0.40 -0.20 -0.08 -0.20 0.68 0 0.76 0.08 1.08 0.20 0.72 0.08 -0.40 0.08 -1.04 0 -1.40z m195.12 0 c-0.12 -0.40 -0.20 -0.08 -0.20 0.68 0 0.76 0.08 1.08 0.20 0.72 0.08 -0.40 0.08 -1.04 0 -1.40z m15.59 0 c-0.12 -0.40 -0.20 -0.08 -0.20 0.68 0 0.76 0.08 1.08 0.20 0.72 0.08 -0.40 0.08 -1.04 0 -1.40z m15.99 0 c-0.12 -0.40 -0.20 -0.08 -0.20 0.68 0 0.76 0.08 1.08 0.20 0.72 0.08 -0.40 0.08 -1.04 0 -1.40z m98.36 0 c-0.12 -0.40 -0.20 -0.08 -0.20 0.68 0 0.76 0.08 1.08 0.20 0.72 0.08 -0.40 0.08 -1.04 0 -1.40z m-291.76 0.52 c0 -0.20 -2.80 -5.16 -3.04 -5.40 -0.08 -0.08 -0.16 1.12 -0.16 2.68 l0 2.88 1.60 0 c0.88 0 1.60 -0.08 1.60 -0.16z m-11.04 -19.79 c0.12 -0.16 0.80 -0.44 1.48 -0.60 0.68 -0.12 2.12 -0.88 3.20 -1.68 6.56 -4.80 7.84 -11.76 3.04 -16.51 -2.24 -2.24 -4.72 -3.36 -12.08 -5.44 -6.88 -1.96 -8.76 -2.72 -9.60 -3.96 -0.64 -0.88 -0.84 -5.68 -0.28 -6.48 0.16 -0.24 1.20 -0.96 2.28 -1.60 1.92 -1.12 2.20 -1.16 7 -1.16 4.40 0 5.36 0.16 7.92 1.08 l2.92 1.04 1.16 -2.32 1.16 -2.32 -2.72 -1.20 c-6.52 -2.92 -13.11 -3.20 -19.43 -0.84 -3.28 1.24 -7 4.88 -8 7.92 -1.72 5.28 1.04 10.52 6.96 13.11 1.24 0.56 4.92 1.72 8.20 2.56 8.32 2.20 9.44 2.96 9.44 6.68 0 4.40 -1.92 5.76 -8.40 6 -4.96 0.16 -8.88 -0.52 -12.44 -2.24 l-2.40 -1.16 -1 1.92 c-0.52 1.08 -0.96 2.16 -0.96 2.48 0 1 5.52 3.44 10.20 4.48 2.72 0.60 12.04 0.80 12.36 0.24z m31.79 -0.24 c1.20 -0.28 2.64 -1 3.20 -1.56 0.84 -0.80 1.48 -1.04 2.96 -1.04 1.84 0 1.88 0.04 1.88 1.20 l0 1.20 3.60 0 3.60 0 0 -6.48 c-0.04 -9.48 -0.56 -15.87 -1.52 -18.03 -3.04 -6.84 -12 -9.80 -20.91 -6.88 -3.12 1.04 -5.24 2.16 -5.04 2.72 1.24 3.08 1.60 3.88 1.84 3.88 0.12 0 1.32 -0.44 2.64 -1 3.08 -1.28 9.52 -1.44 11.80 -0.28 2.20 1.08 3.20 2.96 3.20 5.88 l0 2.48 -6.28 -0.04 c-7.48 -0.04 -10 0.52 -12.59 2.88 -3.04 2.72 -3.88 6.20 -2.28 9.40 1.56 3.12 3.72 4.72 7.76 5.72 2.68 0.64 3.60 0.64 6.16 -0.04z m70.33 -0.36 c2.08 -0.76 5.92 -3.64 7.44 -5.60 2.80 -3.68 4.16 -8.52 3.48 -12.36 -1.44 -8.32 -8.56 -14.35 -16.83 -14.35 -11.20 0.04 -19.59 9.96 -17.03 20.07 2.08 8.20 9.56 13.51 18.23 12.99 1.64 -0.08 3.76 -0.44 4.72 -0.76z m60.82 -0.48 c2.28 -1.28 5.44 -1.36 5.76 -0.16 0.20 0.72 0.56 0.80 3.68 0.80 l3.48 0 -0.16 -11.08 c-0.20 -13.15 -0.36 -13.83 -3.92 -17.39 -1.88 -1.84 -2.76 -2.40 -5.04 -3.12 -4.92 -1.56 -11.12 -1.04 -16.43 1.40 -1.16 0.52 -2.12 1.04 -2.12 1.16 0 0.20 1.60 3.72 1.88 4.20 0.04 0.08 1.04 -0.24 2.16 -0.72 1.52 -0.68 3.20 -0.96 6.32 -1.12 3.76 -0.20 4.52 -0.12 6.12 0.60 2.36 1.04 3.24 2.60 3.28 5.88 l0.04 2.40 -6.40 0 c-7.88 0 -10.08 0.64 -13.07 3.72 -3.04 3.16 -3.40 6.24 -1.12 9.84 2.84 4.44 10.76 6.28 15.55 3.60z m79.53 0.96 c1.04 -0.24 2.36 -0.84 2.96 -1.28 0.60 -0.48 1.52 -1.16 2.08 -1.56 0.56 -0.40 1.04 -0.84 1.04 -1.04 0 -0.16 -0.64 -1.04 -1.40 -1.92 l-1.36 -1.60 -2.12 1.04 c-1.88 0.92 -2.56 1.04 -6.52 1.04 -4.08 0 -4.52 -0.08 -6.28 -1.08 -2.44 -1.44 -3.60 -3.36 -3.44 -5.60 l0.12 -1.72 11.84 -0.12 c10.12 -0.08 11.96 -0.20 12.40 -0.72 0.40 -0.48 0.40 -1.24 0.04 -3.68 -0.92 -5.88 -4.08 -10.44 -9.04 -12.95 -4.60 -2.36 -11.12 -1.92 -15.87 1.12 -5.36 3.36 -8.44 9.96 -7.48 16.07 1.04 6.76 6.24 12.20 13.23 13.91 2.68 0.64 7.40 0.68 9.80 0.08z m40.50 -0.64 c1.60 -0.72 5.96 -4.88 5.96 -5.60 0 -0.16 -1.08 -0.84 -2.36 -1.56 l-2.32 -1.28 -1.12 1.16 c-1.76 1.84 -4 2.52 -7.72 2.36 -4.16 -0.20 -6.52 -1.56 -8.16 -4.72 -1 -1.92 -1.12 -2.52 -1.12 -6.08 0 -4.68 0.44 -6 2.68 -8 l1.64 -1.48 5.04 -0.28 c5.44 -0.32 6.16 -0.16 8.04 2.04 l0.80 0.92 2.16 -1.08 c1.20 -0.60 2.24 -1.32 2.32 -1.56 0.32 -0.88 -3.16 -4.12 -5.76 -5.40 -3 -1.48 -5.36 -1.76 -9.88 -1.20 -7.56 0.96 -13.27 6.36 -14.67 13.83 -1.16 6.28 3 13.67 9.36 16.83 3.60 1.76 5.56 2.16 9.88 2.04 2.52 -0.04 3.88 -0.28 5.24 -0.96z m-79.13 -17.03 c0.16 -9.64 0.36 -17.75 0.48 -18.07 0.16 -0.44 1.48 -0.56 6.56 -0.56 4.36 0 6.48 -0.16 6.80 -0.48 0.28 -0.28 0.48 -1.60 0.48 -3.20 l0 -2.72 -17.99 0 -17.99 0 0 3 0 3 6.80 0 6.80 0 0.08 18.11 0.12 18.07 2 0.24 c1.12 0.16 2.80 0.24 3.80 0.20 l1.80 -0.04 0.28 -17.55z m-137.62 4.84 c0 -9.20 0.12 -12.63 0.48 -12.99 0.32 -0.32 1.84 -0.48 4.20 -0.48 l3.72 0 0 -2.60 0 -2.60 -4.20 0 -4.20 0 0 -3.16 c0 -1.76 0.12 -3.48 0.24 -3.84 0.48 -1.16 2.40 -1.80 5.48 -1.80 l3 0 0.44 -1.76 c0.68 -2.72 0.60 -2.92 -1.32 -3.40 -6.08 -1.52 -12.16 0.96 -14.31 5.88 -0.40 0.92 -0.88 3.08 -1.04 4.80 l-0.28 3.08 -2.48 0.12 -2.52 0.12 0 2.56 0 2.60 2.60 0 2.60 0 0 12.99 0 12.99 3.80 0 3.80 0 0 -12.51z m63.17 2.84 c0 -10.56 0.24 -11.84 2.44 -13.75 1.04 -0.88 5.20 -2.16 7.12 -2.16 1.36 0 1.64 -0.68 1.64 -4.08 l0 -2.32 -1.68 0 c-2.20 0 -4.80 1.32 -6.44 3.24 -1.04 1.20 -1.64 1.56 -2.60 1.56 l-1.28 0 0 -2.40 0 -2.40 -3.40 0 -3.40 0 0 15.99 0 15.99 3.80 0 3.80 0 0 -9.68z m175.61 -1.08 c0.12 -10.16 0.16 -10.84 0.96 -11.88 1.68 -2.28 2.44 -2.56 7.40 -2.84 5.32 -0.28 5.96 -0.08 7.24 2.40 0.88 1.60 0.92 2.16 1.04 12.40 l0.12 10.68 3.84 0 3.80 0 -0.16 -11.08 c-0.16 -10.36 -0.20 -11.28 -1.04 -13.35 -1.24 -3.08 -3.24 -5.28 -6.16 -6.72 -2 -1.04 -2.92 -1.24 -5.16 -1.24 -3.08 0 -6 0.92 -8.16 2.56 -0.76 0.60 -1.88 1.04 -2.56 1.04 l-1.24 0 -0.08 -7.88 -0.12 -7.92 -3.60 0 -3.60 0 -0.24 7 c-0.36 9.28 -0.40 35.55 -0.12 36.71 0.24 0.84 0.44 0.88 4 0.88 l3.72 0 0.12 -10.76z m-127.03 -58.26 c0.88 -0.32 2.44 -0.84 3.44 -1.12 3.20 -0.92 7.52 -3.84 11.36 -7.64 5.72 -5.68 9 -11.72 10.64 -19.59 0.80 -3.76 1 -10.92 0.36 -12.40 -0.28 -0.68 -0.36 -0.68 -0.36 -0.12 -0.08 1.20 -3.48 7.40 -5.20 9.48 -2.20 2.60 -5.92 5.40 -9.44 7.12 -5.24 2.48 -5.88 2.52 -42.86 2.52 l-33.31 0 0 -11.40 0 -11.40 -17.47 0.08 -17.51 0.12 -0.12 22.51 -0.08 22.47 49.46 0 c43.30 -0.04 49.70 -0.12 51.10 -0.64z m24.19 -4.64 c0.52 -0.40 1.12 -0.72 1.28 -0.72 1.92 0 13.95 -11.72 17.47 -16.99 5.76 -8.72 9.24 -19.63 9.24 -28.99 0 -1.44 -0.28 -4.40 -0.60 -6.60 -2 -13.35 -8.28 -24.99 -18.15 -33.55 -4.72 -4.12 -13.83 -9.36 -18.75 -10.84 l-0.92 -0.28 0.12 13.19 0.12 13.19 1.20 0.92 c2.80 2.08 8.28 8.04 10.36 11.24 9.04 13.87 10.72 32.55 4.32 47.42 -1.68 3.88 -4.92 8.92 -7.56 11.72 l-1.76 1.88 1.32 -0.48 c0.72 -0.24 1.76 -0.76 2.32 -1.12z m-66.37 -39.30 l0 -12.99 -7.28 0.08 -7.32 0.12 -0.12 12 c-0.04 6.60 0 12.40 0.12 12.91 0.20 0.88 0.28 0.88 7.40 0.88 l7.20 0 0 -12.99z m23.39 -5.60 l0 -18.39 -5.20 -0.12 c-2.84 -0.08 -6.16 0 -7.28 0.12 l-2.12 0.24 0 18.39 0 18.35 7.32 -0.08 7.28 -0.12 0 -18.39z m23.71 -6.68 l-0.12 -25.31 -7.28 -0.12 -7.32 -0.08 0 25.39 0 25.39 7.40 0 7.40 0 -0.08 -25.27z m-74.41 -33.23 c-7.48 -7.40 -12.12 -15.91 -14.15 -26.15 -0.96 -4.92 -0.96 -16.19 0.04 -20.83 1.56 -7.40 4.92 -14.59 8.56 -18.55 1.36 -1.48 0.88 -1.40 -2.28 0.32 -10.16 5.56 -18.83 16.11 -22.59 27.35 -2.28 6.84 -2.84 10.24 -2.80 16.99 0 14.39 5.16 26.63 15.55 37.15 5.16 5.20 10.44 8.80 17.79 12.12 l3.80 1.72 0.12 -12.99 0.08 -12.99 -4.12 -4.12z m31.59 3.76 c0.48 -0.24 1.80 -0.44 2.96 -0.44 l2.08 0 4.52 4.40 4.52 4.44 9.52 -9.64 9.52 -9.60 1.80 0 c1.48 0 2 0.24 3.28 1.48 0.84 0.80 1.56 1.40 1.64 1.28 0.24 -0.24 3.08 -14.07 2.96 -14.23 -0.08 -0.04 -3.44 0.56 -7.44 1.40 l-7.36 1.52 1.68 1.32 c1.40 1.12 1.64 1.52 1.64 2.80 0 1.44 -0.44 1.96 -8.04 9.60 -10.20 10.20 -9.04 9.96 -15.83 3.16 l-4.88 -4.88 -3.32 3.16 c-1.80 1.76 -6.64 6.48 -10.72 10.48 l-7.40 7.28 1.20 1.24 1.16 1.24 7.84 -7.80 c4.28 -4.24 8.20 -7.96 8.68 -8.20z m5.32 -23.63 l0 -1.60 -12 0 -12 0 0 1.60 0 1.60 12 0 12 0 0 -1.60z m84.17 -10.04 c3.88 -3.68 4.72 -6 3.60 -9.80 -0.52 -1.88 -1.12 -2.80 -2.76 -4.40 -1.96 -1.92 -4.84 -3.36 -6.68 -3.36 -0.48 0 -0.80 -0.56 -1.16 -1.88 -1.08 -4.44 -4.48 -8.44 -8.80 -10.48 -1.92 -0.92 -2.68 -1.04 -5.72 -0.96 -2.80 0.08 -3.96 0.28 -5.76 1.08 -3 1.40 -5.68 3.72 -7.12 6.24 l-1.20 2.08 -3.12 -0.28 c-2.52 -0.16 -3.44 -0.08 -4.80 0.52 -2.20 0.96 -4.16 3.24 -4.72 5.48 -0.36 1.44 -0.68 1.84 -1.52 2.04 -2.68 0.60 -3.84 1.16 -5.24 2.56 -1.76 1.76 -2.76 4.44 -2.36 6.32 0.40 1.92 2.16 4.32 4.04 5.56 l1.64 1.12 15.03 0.20 c8.28 0.12 19.31 0.28 24.55 0.32 l9.56 0.08 2.52 -2.44z m-70.65 -1.44 l0.12 -1.72 -18.79 0 -18.83 0 0 1.52 c0 0.84 0.12 1.68 0.28 1.80 0.12 0.16 8.56 0.24 18.67 0.20 l18.43 -0.12 0.12 -1.68z m-55.14 -4.52 c1.64 -3.16 4 -5.96 6.96 -8.16 3.68 -2.68 8.52 -5 11.40 -5.48 1.24 -0.24 13.47 -0.52 27.19 -0.64 l24.91 -0.20 0.96 -1.92 c0.52 -1.04 1.84 -2.68 2.92 -3.64 1.64 -1.48 2.44 -1.88 5.12 -2.48 1.72 -0.36 3.64 -0.68 4.20 -0.68 0.76 0 1.56 -0.60 3.16 -2.44 2.16 -2.48 5.20 -4.76 6.40 -4.76 0.36 0 1.36 -0.36 2.20 -0.84 1.36 -0.72 2.52 -0.88 7.92 -1.04 l6.28 -0.24 0 -2.16 0 -2.16 -42.06 0.12 -42.10 0.16 -2.96 0.88 c-9.44 2.92 -17.07 9.32 -21.23 17.87 -3 6.16 -4.52 14.59 -3.80 21.23 l0.28 2.76 0.68 -2.20 c0.40 -1.20 1.12 -3 1.60 -4z"/>
  <path d="M148.66 256.46 c-1.92 -0.84 -2.88 -2.76 -2.64 -5.44 0.16 -1.44 0.48 -2.28 1.24 -3.04 1 -1 1.20 -1 7.48 -1.20 l6.48 -0.20 -0.12 3.44 c-0.16 3.28 -0.20 3.48 -1.56 4.88 -0.76 0.76 -2 1.60 -2.80 1.80 -2.08 0.60 -6.40 0.44 -8.08 -0.24z"/>
  <path d="M214.59 254.94 c-4.16 -1.12 -6.08 -4.52 -6.08 -10.64 0.04 -4.20 0.68 -6 2.88 -8.12 1.52 -1.44 3.20 -1.88 7.12 -1.88 3.84 0 5.72 0.88 7.60 3.52 1.12 1.64 1.20 2 1.32 6.16 0.12 3.40 0 4.80 -0.52 6.16 -1.64 4.32 -6.72 6.28 -12.32 4.80z"/>
  <path d="M277.65 256.54 c-1.92 -0.84 -2.56 -2.08 -2.56 -4.92 0 -2.04 0.16 -2.68 0.96 -3.60 l0.96 -1.08 6.68 -0.16 6.72 -0.16 -0.20 2.92 c-0.24 3.52 -0.92 5.04 -3 6.48 -1.40 0.96 -1.92 1.08 -4.96 1.08 -1.92 -0.04 -3.88 -0.28 -4.60 -0.56z"/>
  <path d="M349.06 240.90 c0 -2.12 0.64 -3.56 2.28 -5.04 1.60 -1.52 3.36 -1.96 7.48 -1.96 3.24 0 3.84 0.12 5.12 1 1.76 1.20 3.12 3.88 3.12 6.12 l0 1.68 -9 0 -9 0 0 -1.80z"/>
 </g>
 <g fill="#104fa8">
  <path d="M101.88 287.48 c-2.24 -1.20 -3.28 -2.96 -3.44 -5.84 -0.20 -3.08 0.64 -5.04 2.80 -6.44 2.68 -1.80 7.20 -1.64 8.96 0.32 0.68 0.76 0.68 0.80 -0.12 1.60 l-0.84 0.84 -1.20 -0.88 c-1.72 -1.28 -4.24 -0.92 -5.76 0.80 -0.92 1 -1.12 1.60 -1.12 3.24 0 1.80 0.16 2.20 1.36 3.40 1.60 1.60 3.28 1.80 5.52 0.60 1.36 -0.76 1.48 -0.76 2.08 -0.08 0.88 0.96 0.80 1.32 -0.48 2.24 -1.60 1.16 -5.80 1.28 -7.76 0.20z"/>
  <path d="M115.27 287.28 c-2.04 -1.24 -3.32 -3.68 -3.32 -6.36 0 -2.16 0.64 -3.56 2.28 -5.12 4.56 -4.32 12.12 -1.04 12.12 5.24 0 2.48 -1.12 4.76 -2.92 6.08 -2.16 1.56 -5.64 1.64 -8.16 0.16z m5.64 -1.80 c2.24 -0.84 3.28 -4.40 2.04 -6.80 -0.80 -1.56 -1.72 -2 -4.12 -2 -1.76 0 -2.12 0.16 -3.08 1.28 -0.96 1.12 -1.08 1.56 -0.92 3.40 0.32 3.60 2.88 5.36 6.08 4.12z"/>
  <path d="M128.83 281.21 l0.12 -7.12 1.16 0 c1.08 0 1.36 0.36 3.44 4.12 1.28 2.24 2.36 4.20 2.48 4.32 0.12 0.08 1.36 -1.80 2.76 -4.24 2.28 -3.96 2.64 -4.40 3.64 -4.40 l1.12 0 0 7.24 0 7.20 -1.28 -0.12 -1.32 -0.12 -0.12 -3.52 c-0.12 -4.24 -0.44 -4.32 -2.60 -0.56 -0.84 1.48 -1.80 2.68 -2.12 2.68 -0.28 0 -1.12 -1 -1.80 -2.20 -0.96 -1.72 -1.44 -2.20 -2.20 -2.20 -0.92 0 -0.96 0.08 -0.96 3 l0 3 -1.20 0 -1.20 0 0.08 -7.08z"/>
  <path d="M146.74 281.09 l0 -7.20 3.12 0 c1.68 0 3.72 0.20 4.52 0.40 3 0.84 4.52 3.68 3.56 6.56 -0.60 1.84 -2.40 3.12 -4.72 3.32 -3.64 0.32 -3.68 0.36 -3.68 2.32 0 1.80 0 1.80 -1.40 1.80 l-1.40 0 0 -7.20z m7.20 0.28 c0.52 -0.28 1.16 -0.96 1.36 -1.56 0.76 -2.16 -1.92 -4.08 -4.76 -3.36 -0.92 0.24 -1 0.40 -1 2.84 l0 2.60 1.72 0 c0.92 0 2.12 -0.24 2.68 -0.52z"/>
  <path d="M160.42 281.21 l0.12 -7.12 1.32 -0.12 1.28 -0.12 0 6 0 6 3.52 0.12 c3.48 0.12 3.48 0.12 3.60 1.24 l0.12 1.08 -5.04 0 -5 0 0.08 -7.08z"/>
  <path d="M171.93 281.09 l0 -7.20 5 0 5 0 0 1.20 c0 1.36 -0.44 1.56 -4.40 1.68 l-2.60 0.12 -0.12 1.52 -0.12 1.48 3.20 0 3.24 0 0 1.20 0 1.16 -3.08 0.12 -3.12 0.12 -0.24 1.48 c-0.12 0.84 -0.16 1.60 -0.04 1.72 0.12 0.12 1.80 0.20 3.76 0.20 l3.52 0 0 1.20 0 1.20 -5 0 -5 0 0 -7.20z"/>
  <path d="M187.44 282.41 l-0.12 -5.92 -2.08 -0.12 c-2.04 -0.12 -2.12 -0.16 -2.12 -1.32 l0 -1.20 5.72 0.12 5.68 0.12 0 1.20 c0 1.16 -0.08 1.20 -2 1.40 l-2 0.20 -0.20 5.60 -0.20 5.60 -1.28 0.12 -1.28 0.12 -0.12 -5.92z"/>
  <path d="M196.32 281.09 l0 -7.20 5 0 5 0 0 1.20 0 1.16 -3.48 0.12 -3.52 0.12 -0.12 1.72 -0.12 1.68 3.20 0 3.24 0 0 1.20 0 1.16 -3.08 0.12 -3.12 0.12 -0.12 1.72 -0.12 1.68 3.80 0 3.84 0 0 1.20 0 1.20 -5.20 0 -5.20 0 0 -7.20z"/>
  <path d="M217.11 282.29 l0 -6 -2.20 0 c-2.16 0 -2.20 0 -2.20 -1.20 l0 -1.20 5.80 0 5.80 0 0 1.20 c0 1 -0.16 1.20 -0.96 1.20 -0.52 0 -1.52 0.12 -2.20 0.24 l-1.24 0.28 0 5.72 0 5.76 -1.40 0 -1.40 0 0 -6z"/>
  <path d="M225.99 281.21 l0.12 -7.12 4.92 -0.12 4.88 -0.12 0 1.24 0 1.20 -3.60 0 -3.60 0 0 1.80 0 1.80 3.20 0 3.20 0 0 1.20 0 1.20 -3.20 0 -3.20 0 0 1.80 0 1.80 3.80 0 3.80 0 0 1.20 0 1.20 -5.20 0 -5.20 0 0.08 -7.08z"/>
  <path d="M241.30 287.36 c-3.88 -2.20 -4.92 -7.36 -2.12 -10.88 1.96 -2.48 6.16 -3.32 9.12 -1.80 2 1.04 2.28 1.52 1.28 2.48 l-0.80 0.80 -1.20 -0.88 c-1.64 -1.24 -4.28 -0.88 -5.88 0.80 -2 2.08 -1.48 5.88 1 7.32 1.44 0.84 2.80 0.84 4.56 0 1.36 -0.64 1.48 -0.64 2.24 0.08 0.64 0.56 0.68 0.84 0.32 1.28 -1.56 1.92 -5.84 2.32 -8.52 0.80z"/>
  <path d="M252.38 281.21 l0.12 -7.12 1.32 -0.12 1.28 -0.12 0 3 0 3.04 3.20 0 3.16 0 0.12 -2.88 0.12 -2.92 1.32 -0.12 1.28 -0.12 0 7.20 0 7.24 -1.40 0 -1.40 0 0 -3 0 -3.04 -3.08 0.12 -3.12 0.12 -0.12 2.92 -0.12 2.88 -1.40 0 -1.36 0 0.08 -7.08z"/>
  <path d="M267.49 281.09 l0 -7.20 1.16 0 c1.04 0 1.60 0.56 4.52 4.40 l3.32 4.40 0.08 -3.52 c0.16 -4.88 0.28 -5.28 1.72 -5.28 l1.20 0 0 7.24 0 7.20 -1.16 -0.12 c-0.88 -0.08 -1.64 -0.84 -3.68 -3.52 -1.68 -2.20 -2.88 -3.44 -3.44 -3.52 -0.88 -0.12 -0.92 -0.04 -0.92 3.48 l0 3.64 -1.40 0 -1.40 0 0 -7.20z"/>
  <path d="M285.29 287.40 c-3.08 -1.76 -4.28 -6.24 -2.60 -9.68 1.12 -2.32 3.12 -3.56 6.04 -3.76 2 -0.16 2.60 0 4.16 0.88 4.36 2.56 4.60 9.32 0.48 12.40 -1.72 1.28 -6 1.36 -8.08 0.16z m5.80 -2.12 c2.60 -1.36 3.24 -5.24 1.24 -7.48 -1.04 -1.16 -1.40 -1.32 -3.20 -1.32 -1.64 0 -2.20 0.20 -3.08 1.04 -2.08 2.08 -1.64 6.12 0.80 7.60 1.52 0.92 2.68 0.96 4.24 0.16z"/>
  <path d="M298.68 281.05 l0 -7.20 1.32 0.12 1.28 0.12 0.12 5.92 0.12 5.88 3.36 0 3.40 0 0 1.20 0 1.20 -4.80 0 -4.80 0 0 -7.24z"/>
  <path d="M312.59 287.48 c-2.24 -1.20 -3.28 -2.92 -3.44 -5.84 -0.12 -2 0 -2.80 0.68 -4.04 2.76 -4.88 10.16 -4.96 12.71 -0.12 1.80 3.40 0.80 7.72 -2.28 9.76 -2 1.32 -5.40 1.40 -7.68 0.24z m5.68 -2.20 c2.32 -1.20 3.08 -4.48 1.60 -6.92 -1.52 -2.48 -4.88 -2.72 -6.88 -0.48 -0.92 1 -1.12 1.60 -1.12 3.24 0 1.80 0.16 2.20 1.36 3.40 1.52 1.52 3.08 1.76 5.04 0.76z"/>
  <path d="M328.47 287.40 c-4.64 -2.72 -4.56 -10.08 0.16 -12.59 2.16 -1.12 4.80 -1.20 7.16 -0.12 1.76 0.80 2.08 1.56 1.08 2.40 -0.48 0.40 -0.88 0.36 -2.04 -0.20 -2.12 -1 -4.44 -0.60 -5.84 1 -0.92 0.96 -1.12 1.60 -1.12 3.16 0 3.32 2.44 5.32 5.60 4.64 1.08 -0.24 1.16 -0.40 1.28 -2.32 0.12 -2.04 0.16 -2.08 1.44 -2.20 l1.28 -0.12 0 3 c0 3.60 -0.32 3.88 -4.60 4.12 -2.36 0.12 -3.04 0 -4.40 -0.76z"/>
  <path d="M343.78 285.61 c-0.16 -2.44 -0.40 -3.12 -2.48 -6.64 -1.28 -2.16 -2.20 -4.20 -2.08 -4.52 0.12 -0.32 0.64 -0.56 1.20 -0.56 0.80 0 1.32 0.60 2.84 3.28 l1.88 3.24 1.28 -2.04 c0.68 -1.12 1.56 -2.60 1.92 -3.28 0.52 -0.92 0.96 -1.20 1.92 -1.20 0.64 0 1.20 0.20 1.20 0.48 0 0.24 -1.04 2.16 -2.28 4.28 -2.04 3.44 -2.32 4.12 -2.52 6.64 -0.20 2.80 -0.20 2.80 -1.44 2.92 l-1.28 0.12 -0.16 -2.72z"/>
  <path d="M358.98 287.60 c-1.56 -0.60 -1.80 -1.08 -1.16 -2.08 0.32 -0.48 0.72 -0.52 2.52 -0.08 2.60 0.64 4.28 0.48 4.88 -0.44 0.72 -1.16 -0.20 -2.04 -3 -2.80 -3.08 -0.84 -4.44 -2.08 -4.44 -4.04 0 -2.84 1.80 -4.28 5.28 -4.28 2.04 0 4.80 0.88 4.80 1.52 0 0.16 -0.24 0.68 -0.56 1.08 -0.48 0.68 -0.68 0.72 -1.60 0.28 -1.16 -0.52 -3.36 -0.64 -4.40 -0.24 -0.36 0.16 -0.64 0.72 -0.64 1.40 0 1.04 0.20 1.20 2.84 1.96 3.52 1.04 4.76 2.20 4.76 4.28 0 1.60 -0.84 2.92 -2.28 3.68 -1.24 0.64 -5.24 0.52 -7 -0.24z"/>
  <path d="M373.01 287.68 c-2.16 -1.16 -2.56 -2.32 -2.68 -8.28 l-0.16 -5.52 1.44 0 1.44 0 0 5 c0 4.80 0.04 5.08 1 6 1.16 1.20 2.96 1.28 4.24 0.24 0.88 -0.72 0.96 -1.12 1.16 -5.92 l0.20 -5.12 1.32 -0.12 1.28 -0.12 0 5.04 c0 5.56 -0.40 7.12 -2.20 8.52 -0.88 0.68 -1.64 0.88 -3.56 0.88 -1.32 -0.04 -2.92 -0.28 -3.48 -0.60z"/>
  <path d="M385.33 288 c-0.16 -0.12 -0.28 -3.24 -0.28 -6.92 l0 -6.68 2.92 -0.24 c5.88 -0.52 8.68 1.08 8.68 5 0 1.64 -0.20 2.16 -1.32 3.36 -1.16 1.28 -1.56 1.44 -3.88 1.64 -1.44 0.12 -2.84 0.40 -3.08 0.64 -0.28 0.20 -0.52 1.08 -0.52 1.92 0 1.44 -0.08 1.56 -1.12 1.56 -0.64 0 -1.28 -0.12 -1.40 -0.28z m7.60 -7 c1.12 -1.04 1.20 -2.76 0.16 -3.68 -0.56 -0.52 -1.32 -0.64 -2.88 -0.56 l-2.16 0.12 -0.12 1.56 c-0.24 2.92 0.08 3.44 2.20 3.44 1.36 0 2.12 -0.24 2.80 -0.88z"/>
  <path d="M398.72 281.21 l0.12 -7.12 2.60 -0.12 c5.92 -0.32 8.80 1.36 8.80 5.08 0 3.40 -2.32 5.24 -6.60 5.24 l-2.20 0 0 2 0 2 -1.40 0 -1.40 0 0.08 -7.08z m8.16 -0.32 c0.76 -1 0.72 -2.80 -0.08 -3.56 -0.40 -0.44 -1.36 -0.64 -3 -0.64 l-2.36 0 0 2.64 0 2.64 2.44 -0.16 c1.80 -0.12 2.60 -0.40 3 -0.92z"/>
  <path d="M415.63 287.56 c-4.76 -3.04 -5.16 -8.80 -0.88 -12.24 3.20 -2.56 8.56 -1.56 10.56 2 1.80 3.16 0.88 7.80 -1.96 9.80 -1.80 1.32 -6 1.52 -7.72 0.44z m6.76 -3.32 c1 -1.16 1.12 -1.48 0.96 -3.40 -0.20 -2.56 -1.36 -4 -3.40 -4.40 -3.96 -0.76 -6.72 3.76 -4.52 7.36 1 1.60 2.12 2.12 4.20 1.88 1.16 -0.12 1.92 -0.48 2.76 -1.44z"/>
  <path d="M428.63 281.13 l0 -7.24 2.92 0 c3.68 0.04 5.72 0.48 6.92 1.64 1.96 1.84 1.92 5.12 -0.04 7.16 l-1.08 1.12 1.16 1.76 c1.92 2.84 1.92 2.72 0.24 2.72 -1.40 0 -1.64 -0.20 -2.84 -2.04 -1.24 -1.88 -1.40 -2 -2.80 -1.88 -1.44 0.12 -1.48 0.16 -1.68 1.92 -0.20 1.68 -0.28 1.80 -1.48 1.92 l-1.32 0.12 0 -7.20z m7.48 0.08 c0.96 -0.36 1.40 -2.04 0.84 -3.24 -0.56 -1.16 -2.84 -1.92 -4.52 -1.52 -0.92 0.24 -1 0.44 -1 2.60 0 1.28 0.12 2.44 0.28 2.60 0.32 0.28 3.24 0 4.40 -0.44z"/>
  <path d="M445.02 282.29 l0 -6 -2.24 0 c-2.16 0 -2.20 0 -2.08 -1.08 l0.12 -1.12 5.80 0 5.80 0 0.12 0.96 c0.16 1.12 -0.48 1.64 -2.20 1.64 -2.56 0 -2.52 -0.04 -2.52 6.04 l0 5.56 -1.40 0 -1.40 0 0 -6z"/>
  <path d="M108.56 262.09 c-3.04 -0.68 -7.28 -2.24 -9.56 -3.60 l-1.76 -1.04 0.96 -2.24 c1.24 -2.80 2.52 -5.32 2.72 -5.32 0.08 0 1.56 0.72 3.32 1.60 5.60 2.84 13.07 3.64 16.75 1.72 2.04 -1.04 3 -3.32 2.12 -5.12 -0.84 -1.72 -2.36 -2.40 -9 -4.16 -7.08 -1.84 -9.88 -3.04 -12.12 -5.08 -2.44 -2.16 -3.32 -4.16 -3.56 -7.80 -0.24 -4.44 0.60 -6.68 3.68 -9.80 2.56 -2.56 5.08 -3.80 9.20 -4.60 2.96 -0.56 8.32 -0.44 11.76 0.28 3.48 0.72 8.88 3.04 8.88 3.80 0 0.40 -2.60 6.40 -3.08 7.12 -0.04 0.08 -1.40 -0.40 -3 -1.08 -5.92 -2.44 -11.16 -2.68 -14.67 -0.60 -2.24 1.28 -2.44 1.56 -2.44 3.32 0 2.92 1.16 3.64 10.20 6.20 7.36 2.08 9.84 3.20 12.08 5.44 2 1.96 2.92 4.40 2.92 7.76 0 4.84 -1.72 8.04 -5.96 11.16 -1.08 0.80 -2.52 1.56 -3.20 1.68 -0.68 0.16 -1.36 0.44 -1.48 0.60 -0.32 0.56 -12.08 0.36 -14.75 -0.24z"/>
  <path d="M146.54 262.13 c-2.48 -0.64 -4.92 -1.88 -6.04 -3.12 -3.76 -4.12 -3.56 -10.56 0.44 -14.27 2.68 -2.48 5.08 -3.04 12.71 -3.04 l6.28 0 0 -1.24 c0 -1.64 -1.48 -3.80 -3.20 -4.64 -2.16 -1.12 -6.28 -0.96 -9.52 0.32 -1.48 0.60 -2.84 1.20 -3.08 1.40 -0.96 0.92 -1.68 0.24 -3.12 -2.80 -0.80 -1.76 -1.48 -3.40 -1.48 -3.60 0 -0.60 3.40 -2.24 6.60 -3.16 10.08 -2.96 19.55 -0.04 22.67 7 1 2.24 1.48 8.60 1.52 19.23 l0 7.68 -4.80 0 -4.80 0 0 -1.20 c0 -1.52 -0.96 -1.60 -2.44 -0.16 -2 1.92 -7.44 2.68 -11.76 1.60z m9 -6.64 c0.80 -0.20 2.04 -1 2.80 -1.80 1.12 -1.16 1.36 -1.76 1.52 -3.64 l0.20 -2.28 -5.28 0.20 c-4.76 0.20 -5.40 0.32 -6.24 1.12 -1.28 1.20 -1.56 2.56 -0.80 4.20 1.08 2.20 4.40 3.16 7.80 2.20z"/>
  <path d="M213.03 262.09 c-8.84 -2.24 -13.95 -9.36 -13.39 -18.59 0.44 -7.68 4.64 -13.15 11.88 -15.63 3.76 -1.28 10.04 -1.24 13.39 0.04 4.72 1.84 7.84 4.52 9.84 8.60 2.92 6 2.44 13.11 -1.32 18.79 -1.56 2.32 -5.52 5.56 -7.92 6.40 -2.52 0.92 -9.56 1.16 -12.48 0.40z m8.36 -8.64 c1.64 -0.52 3.96 -3.08 4.56 -5.08 0.24 -0.88 0.40 -2.92 0.32 -4.60 -0.16 -2.60 -0.36 -3.28 -1.40 -4.76 -2.16 -3.12 -5.76 -4.28 -9.72 -3.12 -3.12 0.88 -5.36 4.36 -5.40 8.40 -0.08 7.28 4.92 11.24 11.64 9.16z"/>
  <path d="M275.09 262.09 c-5 -1.40 -7.88 -4.48 -8.28 -8.88 -0.32 -3.36 0.40 -5.48 2.60 -7.80 2.92 -3 5.16 -3.68 13.07 -3.80 l6.40 -0.08 -0.12 -1.28 c-0.16 -2.12 -1.20 -3.56 -3.20 -4.44 -2.56 -1.16 -7.08 -0.76 -10.96 0.88 -1.56 0.68 -2.96 1.12 -3.12 1 -0.36 -0.24 -3.20 -6.12 -3.20 -6.68 0 -0.52 4.60 -2.60 7.60 -3.36 4 -1.04 10.24 -0.96 13.95 0.20 2.52 0.76 3.32 1.24 5.24 3.16 3.60 3.64 3.72 4.08 3.92 18.59 l0.16 12.28 -4.68 0 c-4.32 0 -4.68 -0.04 -4.88 -0.80 -0.28 -1.08 -1.24 -1 -3.44 0.24 -2.40 1.32 -7.72 1.68 -11.08 0.76z m10.92 -7.28 c1.80 -1.28 2.60 -2.64 2.96 -5.16 l0.24 -1.88 -5.52 0.20 c-5.40 0.20 -5.56 0.20 -6.48 1.28 -1.08 1.28 -1.20 3.24 -0.28 4.60 0.92 1.28 2.80 2 5.32 2.04 1.76 0 2.52 -0.24 3.76 -1.08z"/>
  <path d="M179.53 248.90 l0 -12.99 -2.60 0 -2.60 0 0 -3.80 0 -3.76 2.52 -0.12 2.48 -0.12 0.28 -3.08 c0.36 -3.76 1.28 -6.04 3.36 -8.04 2.20 -2.12 5.20 -3.16 9.16 -3.20 3.04 0 7.84 0.96 7.80 1.64 -0.04 0.16 -0.44 1.80 -0.96 3.68 -0.68 2.40 -1.12 3.36 -1.48 3.24 -1.32 -0.36 -4.40 -0.52 -5.36 -0.28 -1.88 0.48 -2.60 1.60 -2.60 4.04 l0 2.20 4.20 0 4.20 0 0 3.80 0 3.80 -3.72 0 c-2.36 0 -3.88 0.16 -4.20 0.48 -0.36 0.36 -0.48 3.80 -0.48 12.99 l0 12.51 -5 0 -5 0 0 -12.99z"/>
  <path d="M242.70 244.70 l0 -17.19 4.60 0 4.60 0 0 2.48 0 2.48 1.40 -1.64 c1.76 -2.04 4.28 -3.32 6.64 -3.32 1 0 2 -0.20 2.24 -0.44 0.28 -0.28 0.76 -0.36 1.08 -0.24 0.52 0.20 0.64 0.96 0.64 3.96 0 4.92 -0.20 5.52 -1.64 5.52 -1.92 0 -6.08 1.28 -7.12 2.16 -2.20 1.92 -2.44 3.20 -2.44 13.75 l0 9.68 -5 0 -5 0 0 -17.19z"/>
  <path d="M198.40 169.85 l0.12 -23.71 18.71 -0.12 18.67 -0.08 0 11.40 0 11.40 32.11 0 c35.67 0 36.47 -0.04 41.66 -2.52 3.48 -1.68 7.24 -4.52 9.36 -7.04 2.12 -2.52 4.64 -7.24 5.48 -10.32 1.52 -5.48 2.96 -1.88 2.96 7.32 0 11.32 -3.68 20.27 -11.40 27.95 -3.84 3.80 -8.16 6.72 -11.36 7.64 -1 0.28 -2.56 0.80 -3.44 1.12 -1.40 0.52 -7.92 0.60 -52.30 0.64 l-50.66 0 0.08 -23.67z"/>
  <path d="M289.08 135.35 l0 -26.59 8.52 0.08 8.48 0.12 0.12 26.51 0.08 26.47 -8.60 0 -8.60 0 0 -26.59z"/>
  <path d="M231.31 132.59 c-9.08 -3.76 -16.03 -8.64 -22.03 -15.43 -6.36 -7.24 -10.24 -15.11 -12.40 -25.19 -1.04 -4.80 -1.04 -16.43 -0.04 -21.19 3.44 -16.03 12.55 -28.51 26.07 -35.63 3.88 -2.08 7.76 -3.56 9.16 -3.56 0.72 0 0.64 0.16 -0.56 1.08 -6.64 5.04 -11.72 13.71 -13.83 23.79 -0.96 4.52 -0.96 13.63 -0.04 18.43 2.04 10.20 6.68 18.75 14.15 26.15 l4.12 4.12 0 14.39 c0 16.59 0.52 15.15 -4.60 13.03z"/>
  <path d="M243.22 121.75 l-2.32 -2.20 11.60 -11.40 c6.40 -6.28 11.84 -11.40 12.16 -11.40 0.32 0 2.96 2.36 5.88 5.28 l5.32 5.28 2.52 -2.40 c2.68 -2.48 8.16 -8 11.88 -11.88 l2.20 -2.32 -2.52 -2.24 c-1.36 -1.24 -2.36 -2.36 -2.16 -2.56 0.48 -0.48 15.63 -3.56 17.59 -3.56 l1.64 0 -0.52 2.04 c-0.32 1.12 -1.24 5.32 -2.04 9.32 -0.80 3.96 -1.56 7.32 -1.64 7.40 -0.08 0.12 -1.28 -0.92 -2.68 -2.32 -2 -1.96 -2.72 -2.48 -3.36 -2.28 -0.44 0.16 -5.16 4.68 -10.44 10.04 -5.28 5.40 -9.76 9.80 -10 9.80 -0.24 0 -2.64 -2.16 -5.36 -4.80 -5.20 -5 -5.76 -5.32 -7.80 -4.24 -0.60 0.32 -4.68 4.20 -9.08 8.60 -4.40 4.44 -8.12 8.04 -8.28 8.04 -0.16 0 -1.32 -1 -2.60 -2.20z"/>
  <path d="M222.91 75.97 c-0.64 -2.72 -0.80 -4.84 -0.80 -10.40 0.04 -6.36 0.12 -7.36 1.12 -11 3.48 -12.55 11.88 -21.35 23.91 -25.07 l2.96 -0.92 43.30 -0.12 43.26 -0.12 0 3.52 0 3.52 -6.32 0.04 c-5.64 0.04 -6.44 0.12 -7.88 0.88 -0.84 0.48 -1.84 0.88 -2.20 0.88 -1.20 0 -4.24 2.28 -6.40 4.76 -1.60 1.84 -2.40 2.44 -3.16 2.44 -0.56 0 -2.48 0.32 -4.20 0.68 -2.68 0.60 -3.48 1 -5.12 2.48 -1.08 0.96 -2.40 2.60 -2.92 3.64 l-0.96 1.92 -24.91 0.20 c-13.71 0.12 -25.95 0.40 -27.19 0.64 -4.80 0.80 -12.83 5.72 -15.87 9.72 -2.16 2.88 -3.88 6.64 -4.64 10.28 -1.28 5.96 -1.16 5.80 -2 2.04z"/>
 </g>
 <g fill="#f8a41b">
  <path d="M353.58 262.13 c-9.24 -2.24 -14.79 -10.72 -13.31 -20.31 1.04 -6.92 5.04 -11.72 11.68 -13.95 2.16 -0.72 3.20 -0.80 7.12 -0.68 4.20 0.16 4.80 0.24 7.04 1.40 4.60 2.40 7.68 6.44 8.76 11.60 0.72 3.32 0.76 7 0.12 7.64 -0.36 0.36 -3.64 0.48 -12.20 0.48 -10 0 -11.76 0.08 -11.96 0.60 -0.40 0.96 1.40 3.32 3.36 4.52 1.64 0.92 2.32 1.08 5.12 1.08 2.88 0 3.52 -0.16 5.76 -1.28 1.36 -0.72 2.76 -1.32 3.04 -1.32 0.28 0 1.52 1.20 2.80 2.64 l2.32 2.64 -1.64 1.48 c-2.80 2.44 -3.84 3.08 -5.80 3.56 -2.44 0.60 -9.52 0.56 -12.20 -0.08z m12.08 -21.71 c-0.84 -3.44 -3.32 -5.32 -6.88 -5.32 -3.92 0 -6.52 1.32 -7.96 4.08 -1.24 2.36 -1.28 2.32 7.28 2.32 l7.84 0 -0.28 -1.08z"/>
  <path d="M393.44 262.25 c-3.20 -0.64 -7.36 -2.96 -9.52 -5.36 -9.80 -10.68 -3.92 -27.67 10.16 -29.47 5 -0.60 9.16 -0.28 11.84 0.96 2.64 1.20 5.44 3.68 6.52 5.72 0.76 1.36 0.76 1.40 0 2.16 -1 1 -5.36 3.24 -6.24 3.24 -0.40 0 -1.12 -0.52 -1.64 -1.16 -1.80 -2.24 -2.60 -2.48 -6.92 -2.20 -3.80 0.28 -4 0.36 -5.52 1.72 -2.08 1.88 -2.68 3.40 -2.68 6.80 0 2.24 0.20 3.16 1.12 4.88 2.72 5.24 9.64 6.32 13.67 2.16 0.76 -0.76 1.60 -1.40 1.92 -1.40 0.88 0 6.52 3.20 6.76 3.84 0.48 1.24 -3.92 6.16 -6.64 7.48 -1.52 0.72 -2.64 0.88 -6.44 0.96 -2.52 0.04 -5.40 -0.12 -6.40 -0.32z"/>
  <path d="M318.87 261.94 l-2 -0.24 -0.12 -18.07 -0.08 -18.11 -6.80 0 -6.80 0 0 -4.20 0 -4.20 19.19 0 19.19 0 0 3.92 c0 2.52 -0.16 4.08 -0.48 4.40 -0.32 0.32 -2.44 0.48 -6.80 0.48 -5.08 0 -6.40 0.12 -6.56 0.56 -0.12 0.32 -0.32 8.44 -0.48 18.07 l-0.28 17.55 -3 0.04 c-1.64 0.04 -3.88 -0.08 -5 -0.20z"/>
  <path d="M417.99 260.42 c-0.40 -2.16 0.08 -44.90 0.52 -45.34 0.20 -0.20 2.44 -0.32 4.96 -0.28 l4.56 0.12 0.12 7.92 0.08 7.92 1.40 -1.04 c2.44 -1.88 5 -2.60 9.36 -2.60 3.56 0 4.12 0.12 6.36 1.24 2.92 1.44 4.92 3.64 6.16 6.72 0.84 2.12 0.92 2.96 1.04 14.55 l0.16 12.28 -5.04 0 -5 0 -0.12 -10.68 c-0.12 -10.28 -0.16 -10.80 -1.04 -12.44 -1.24 -2.32 -2.12 -2.64 -6.28 -2.28 -2.88 0.24 -3.64 0.44 -4.68 1.32 -2.20 1.84 -2.32 2.64 -2.32 13.87 l0 10.20 -5 0 -4.96 0 -0.28 -1.48z"/>
  <path d="M319.11 187.68 c8.08 -8.36 12.04 -16.63 13.15 -27.67 1.08 -10.44 -1.80 -21.95 -7.84 -31.19 -2.08 -3.20 -7.56 -9.16 -10.36 -11.24 l-1.20 -0.92 -0.12 -14.35 c-0.08 -12.48 -0.04 -14.39 0.48 -14.59 1.40 -0.52 9.40 2.88 14.67 6.28 13.87 8.92 22.51 22.19 24.95 38.54 1.96 13.15 -1.08 26.51 -8.64 37.98 -3.76 5.68 -14.67 16.15 -17.87 17.15 -0.44 0.16 -1.04 0.52 -1.28 0.84 -0.28 0.32 -0.76 0.60 -1.04 0.60 -0.32 0 -1.52 0.48 -2.68 1.04 -1.12 0.56 -2.96 1.12 -4.08 1.24 l-2 0.24 3.84 -3.96z"/>
  <path d="M242.10 161.06 c-0.12 -0.52 -0.16 -6.84 -0.12 -14.11 l0.12 -13.19 8.48 -0.12 8.52 -0.08 0 14.19 0 14.19 -8.40 0 c-8.36 0 -8.40 0 -8.60 -0.88z"/>
  <path d="M265.49 142.38 l0 -19.59 2.12 -0.24 c1.12 -0.12 4.96 -0.20 8.48 -0.12 l6.40 0.12 0 19.59 0 19.59 -8.48 0.12 -8.52 0.08 0 -19.55z"/>
  <path d="M242.30 82.37 l0 -2.80 13.19 0 13.19 0 0 2.80 0 2.80 -13.19 0 -13.19 0 0 -2.80z"/>
  <path d="M313.83 75.57 l-15.03 -0.20 -1.68 -1.12 c-3.56 -2.36 -5.12 -6.80 -3.84 -10.72 1.12 -3.36 3.40 -5.24 7.44 -6.12 0.84 -0.20 1.16 -0.60 1.52 -2.04 0.60 -2.32 2.76 -4.76 5.08 -5.64 1.32 -0.52 2.48 -0.64 4.68 -0.44 l2.88 0.20 1.20 -2 c1.48 -2.48 4.20 -4.80 7.20 -6.16 2 -0.92 2.84 -1.08 6.96 -1.12 4.24 -0.04 4.84 0.04 6.84 1 4.32 2.04 7.72 6.04 8.80 10.48 0.36 1.32 0.68 1.88 1.16 1.88 3.48 0 8.32 3.92 9.40 7.56 1.48 5.04 0.68 8 -3.16 11.96 l-2.84 2.88 -10.76 -0.08 c-5.96 -0.04 -17.55 -0.20 -25.83 -0.32z"/>
  <path d="M242.58 73.69 c-0.16 -0.12 -0.28 -1.48 -0.28 -3 l0 -2.72 19.99 0 20.03 0 -0.12 2.92 -0.12 2.88 -19.63 0.12 c-10.80 0.04 -19.75 -0.04 -19.87 -0.20z"/>
 </g>
</svg>